<svg width="266" height="148" viewBox="0 0 266 148" fill="none" xmlns="http://www.w3.org/2000/svg">
<mask id="path-1-inside-1_54_13" fill="white">
<path fill-rule="evenodd" clip-rule="evenodd" d="M114 5H121C126.523 5 131 9.47715 131 15V15.7709C127.335 11.6188 121.973 9 116 9H103.802C106.478 6.51765 110.062 5 114 5ZM116 14C118.727 14 121.285 14.7279 123.488 16H99.5392C99.729 15.3123 99.9666 14.6443 100.248 14H116ZM114 0C107.018 0 100.872 3.57778 97.294 9H79H74V14V94V99H79H131H136H188H193V94V14V9H188H151C145.027 9 139.665 11.6188 136 15.7709V15C136 6.71573 129.284 0 121 0H114ZM136 29C136 27.6148 136.188 26.2734 136.539 25H142V37H136V29ZM136 42H142H147V37V25V20H142H138.999C141.736 16.3567 146.093 14 151 14H188V94H136V42ZM79 94H131V42H114C103.974 42 95.671 34.6225 94.2235 25C94.0763 24.0214 94 23.0196 94 22V21V20C94 18.6301 94.1377 17.2924 94.4001 16C94.5381 15.3202 94.7105 14.6529 94.9156 14H79V94ZM131 37H114C106.743 37 100.69 31.8467 99.3001 25H130.461C130.812 26.2734 131 27.6148 131 29V37ZM15.4068 141.008C15.4068 143.048 14.6148 144.68 13.0308 145.904C11.4468 147.128 9.62277 147.74 7.55877 147.74C5.49477 147.74 3.14277 147.32 0.502768 146.48C0.478768 146.024 0.466766 145.292 0.466766 144.284C0.466766 143.276 0.574768 141.824 0.790768 139.928C1.43877 139.928 2.05077 139.988 2.62677 140.108V140.324C2.62677 143.828 4.25877 145.58 7.52277 145.58C8.65077 145.58 9.56277 145.304 10.2588 144.752C10.9548 144.176 11.3028 143.396 11.3028 142.412C11.3028 141.428 10.9308 140.564 10.1868 139.82C9.46677 139.076 8.57877 138.452 7.52277 137.948C6.49077 137.42 5.44677 136.868 4.39077 136.292C3.33477 135.692 2.43477 134.876 1.69077 133.844C0.970768 132.812 0.610768 131.588 0.610768 130.172C0.610768 128.252 1.31877 126.752 2.73477 125.672C4.15077 124.568 5.89077 124.016 7.95477 124.016C10.0188 124.016 12.1548 124.364 14.3628 125.06C14.3628 126.74 14.2068 128.588 13.8948 130.604C13.3908 130.604 12.8988 130.568 12.4188 130.496C12.0108 127.568 10.5708 126.104 8.09877 126.104C7.01877 126.104 6.14277 126.368 5.47077 126.896C4.79877 127.424 4.46277 128.156 4.46277 129.092C4.46277 130.004 4.83477 130.82 5.57877 131.54C6.34677 132.26 7.25877 132.872 8.31477 133.376C9.39477 133.88 10.4628 134.42 11.5188 134.996C12.5988 135.548 13.5108 136.34 14.2548 137.372C15.0228 138.38 15.4068 139.592 15.4068 141.008ZM42.0299 128.084V145.22C42.7259 145.508 43.5539 145.652 44.5139 145.652C44.5139 146.3 44.4779 146.852 44.4059 147.308H35.0099C35.0099 146.54 35.0579 145.988 35.1539 145.652C35.9459 145.532 36.5219 145.34 36.8819 145.076C37.2419 144.812 37.4219 144.344 37.4219 143.672V137.048H28.2419V145.22C28.9379 145.508 29.7659 145.652 30.7259 145.652V146.156C30.7259 146.396 30.6899 146.78 30.6179 147.308H21.2579V146.66C21.2579 146.348 21.3179 146.012 21.4379 145.652C22.2299 145.532 22.8059 145.34 23.1659 145.076C23.5259 144.812 23.7059 144.344 23.7059 143.672V126.572C23.0099 126.26 22.1579 126.104 21.1499 126.104C21.1499 125.384 21.2099 124.832 21.3299 124.448H30.6539C30.6779 124.616 30.6899 124.856 30.6899 125.168C30.6899 125.456 30.6299 125.768 30.5099 126.104C29.7419 126.2 29.1659 126.392 28.7819 126.68C28.4219 126.944 28.2419 127.412 28.2419 128.084V134.816H37.4219V126.536C36.7259 126.248 35.8979 126.104 34.9379 126.104V125.492C34.9379 125.228 34.9859 124.88 35.0819 124.448H44.4419V125.168C44.4419 125.456 44.3939 125.768 44.2979 126.104C43.5059 126.2 42.9299 126.392 42.5699 126.68C42.2099 126.944 42.0299 127.412 42.0299 128.084ZM55.8775 137.48H61.7095L58.7215 127.724L58.4335 129.164L55.8775 137.48ZM61.1695 147.308C61.1695 146.708 61.2175 146.156 61.3135 145.652C62.5135 145.364 63.4015 145.076 63.9775 144.788L62.3575 139.496H55.2655L53.5375 145.148C54.1615 145.484 55.0975 145.652 56.3455 145.652C56.3455 146.276 56.2975 146.828 56.2015 147.308H48.6775C48.6775 146.684 48.7255 146.132 48.8215 145.652C50.1655 145.34 51.0295 144.596 51.4135 143.42L57.6775 124.412C58.7575 124.172 60.2455 124.028 62.1415 123.98L68.3695 143.492C68.6335 144.284 68.9575 144.836 69.3415 145.148C69.7495 145.46 70.3615 145.628 71.1775 145.652C71.1295 146.372 71.0695 146.924 70.9975 147.308H61.1695ZM97.3521 145.652C97.3761 145.796 97.388 146 97.388 146.264C97.388 146.528 97.316 146.876 97.1721 147.308H90.8L84.4641 137.984C84.1281 137.504 83.792 137.24 83.456 137.192L82.412 138.2V145.22C83.108 145.508 83.9361 145.652 84.896 145.652V146.156C84.896 146.396 84.86 146.78 84.788 147.308H75.428V146.66C75.428 146.348 75.4881 146.012 75.608 145.652C76.4 145.532 76.9761 145.34 77.3361 145.076C77.696 144.812 77.876 144.344 77.876 143.672V126.572C77.18 126.26 76.328 126.104 75.32 126.104C75.32 125.384 75.3801 124.832 75.5 124.448H84.8241C84.8481 124.616 84.86 124.856 84.86 125.168C84.86 125.456 84.8 125.768 84.68 126.104C83.912 126.2 83.3361 126.392 82.952 126.68C82.592 126.944 82.412 127.412 82.412 128.084V135.428L91.4481 126.536C90.9201 126.272 90.104 126.116 89 126.068C88.952 125.876 88.928 125.648 88.928 125.384C88.928 125.096 89 124.784 89.1441 124.448H97.2801C97.2801 125.192 97.244 125.732 97.1721 126.068C95.732 126.068 94.4361 126.608 93.284 127.688L86.624 134.132C87.44 134.372 88.1841 135.02 88.856 136.076L93.86 143.456C94.412 144.32 94.9161 144.896 95.372 145.184C95.8521 145.448 96.512 145.604 97.3521 145.652ZM111.273 145.436H116.673C117.825 145.436 118.581 145.1 118.941 144.428C119.301 143.756 119.565 142.616 119.733 141.008C120.669 141.008 121.329 141.044 121.713 141.116C121.809 142.508 121.857 143.72 121.857 144.752C121.857 145.784 121.845 146.636 121.821 147.308H104.289V146.66C104.289 146.348 104.349 146.012 104.469 145.652C105.261 145.532 105.837 145.34 106.197 145.076C106.557 144.812 106.737 144.344 106.737 143.672V126.572C106.089 126.26 105.237 126.104 104.181 126.104C104.181 125.384 104.241 124.832 104.361 124.448H121.461V126.788C121.461 127.844 121.401 129.056 121.281 130.424C120.801 130.472 120.177 130.496 119.409 130.496C119.193 128.552 118.905 127.4 118.545 127.04C118.041 126.536 117.345 126.284 116.457 126.284H111.273V134.852L116.457 134.456H117.861V137.084H116.457L111.273 136.796V145.436ZM143.361 141.008C143.361 143.048 142.569 144.68 140.985 145.904C139.401 147.128 137.577 147.74 135.513 147.74C133.449 147.74 131.097 147.32 128.457 146.48C128.433 146.024 128.421 145.292 128.421 144.284C128.421 143.276 128.529 141.824 128.745 139.928C129.393 139.928 130.005 139.988 130.581 140.108V140.324C130.581 143.828 132.213 145.58 135.477 145.58C136.605 145.58 137.517 145.304 138.213 144.752C138.909 144.176 139.257 143.396 139.257 142.412C139.257 141.428 138.885 140.564 138.141 139.82C137.421 139.076 136.533 138.452 135.477 137.948C134.445 137.42 133.401 136.868 132.345 136.292C131.289 135.692 130.389 134.876 129.645 133.844C128.925 132.812 128.565 131.588 128.565 130.172C128.565 128.252 129.273 126.752 130.689 125.672C132.105 124.568 133.845 124.016 135.909 124.016C137.973 124.016 140.109 124.364 142.317 125.06C142.317 126.74 142.161 128.588 141.849 130.604C141.345 130.604 140.853 130.568 140.373 130.496C139.965 127.568 138.525 126.104 136.053 126.104C134.973 126.104 134.097 126.368 133.425 126.896C132.753 127.424 132.417 128.156 132.417 129.092C132.417 130.004 132.789 130.82 133.533 131.54C134.301 132.26 135.213 132.872 136.269 133.376C137.349 133.88 138.417 134.42 139.473 134.996C140.553 135.548 141.465 136.34 142.209 137.372C142.977 138.38 143.361 139.592 143.361 141.008ZM156.161 135.968H158.177C159.737 135.968 160.937 135.536 161.777 134.672C162.641 133.808 163.073 132.632 163.073 131.144C163.073 129.656 162.653 128.48 161.813 127.616C160.973 126.752 159.761 126.32 158.177 126.32H156.161V135.968ZM159.041 137.84H156.161V144.968C157.025 145.328 158.117 145.556 159.437 145.652C159.437 146.372 159.377 146.924 159.257 147.308H149.177V146.624C149.177 146.336 149.225 146.012 149.321 145.652C150.113 145.532 150.689 145.34 151.049 145.076C151.409 144.812 151.589 144.344 151.589 143.672V126.572C150.821 126.26 149.993 126.104 149.105 126.104V125.6C149.105 125.36 149.141 124.976 149.213 124.448H159.005C161.645 124.448 163.805 125.084 165.485 126.356C167.165 127.628 168.005 129.236 168.005 131.18C168.005 133.124 167.165 134.72 165.485 135.968C163.829 137.216 161.681 137.84 159.041 137.84ZM179.819 145.436H185.219C186.371 145.436 187.127 145.1 187.487 144.428C187.847 143.756 188.111 142.616 188.279 141.008C189.215 141.008 189.875 141.044 190.259 141.116C190.355 142.508 190.403 143.72 190.403 144.752C190.403 145.784 190.391 146.636 190.367 147.308H172.835V146.66C172.835 146.348 172.895 146.012 173.015 145.652C173.807 145.532 174.383 145.34 174.743 145.076C175.103 144.812 175.283 144.344 175.283 143.672V126.572C174.635 126.26 173.783 126.104 172.727 126.104C172.727 125.384 172.787 124.832 172.907 124.448H190.007V126.788C190.007 127.844 189.947 129.056 189.827 130.424C189.347 130.472 188.723 130.496 187.955 130.496C187.739 128.552 187.451 127.4 187.091 127.04C186.587 126.536 185.891 126.284 185.003 126.284H179.819V134.852L185.003 134.456H186.407V137.084H185.003L179.819 136.796V145.436ZM201.9 137.48H207.732L204.744 127.724L204.456 129.164L201.9 137.48ZM207.192 147.308C207.192 146.708 207.24 146.156 207.336 145.652C208.536 145.364 209.424 145.076 210 144.788L208.38 139.496H201.288L199.56 145.148C200.184 145.484 201.12 145.652 202.368 145.652C202.368 146.276 202.32 146.828 202.224 147.308H194.7C194.7 146.684 194.748 146.132 194.844 145.652C196.188 145.34 197.052 144.596 197.436 143.42L203.7 124.412C204.78 124.172 206.268 124.028 208.164 123.98L214.392 143.492C214.656 144.284 214.98 144.836 215.364 145.148C215.772 145.46 216.384 145.628 217.2 145.652C217.152 146.372 217.092 146.924 217.02 147.308H207.192ZM228.434 134.96H230.81C232.178 134.96 233.222 134.6 233.942 133.88C234.686 133.136 235.058 132.068 235.058 130.676C235.058 129.26 234.686 128.18 233.942 127.436C233.222 126.692 232.178 126.32 230.81 126.32H228.434V134.96ZM242.618 145.508C242.618 146.228 242.558 146.828 242.438 147.308H236.498L232.106 138.236C231.866 137.732 231.602 137.372 231.314 137.156C231.026 136.94 230.606 136.832 230.054 136.832H228.434V144.968C229.37 145.352 230.378 145.58 231.458 145.652C231.482 145.82 231.494 146.036 231.494 146.3C231.494 146.564 231.446 146.9 231.35 147.308H221.45V146.66C221.45 146.348 221.51 146.012 221.63 145.652C222.422 145.532 222.998 145.34 223.358 145.076C223.718 144.812 223.898 144.344 223.898 143.672V126.572C223.13 126.26 222.278 126.104 221.342 126.104C221.342 125.384 221.402 124.832 221.522 124.448H231.674C234.266 124.448 236.282 125 237.722 126.104C239.186 127.208 239.918 128.72 239.918 130.64C239.918 132.032 239.522 133.22 238.73 134.204C237.938 135.188 236.798 135.908 235.31 136.364C235.982 136.772 236.618 137.528 237.218 138.632L239.63 143.348C240.062 144.188 240.482 144.764 240.89 145.076C241.322 145.364 241.898 145.508 242.618 145.508ZM254.728 145.436H260.128C261.28 145.436 262.036 145.1 262.396 144.428C262.756 143.756 263.02 142.616 263.188 141.008C264.124 141.008 264.784 141.044 265.168 141.116C265.264 142.508 265.312 143.72 265.312 144.752C265.312 145.784 265.3 146.636 265.276 147.308H247.744V146.66C247.744 146.348 247.804 146.012 247.924 145.652C248.716 145.532 249.292 145.34 249.652 145.076C250.012 144.812 250.192 144.344 250.192 143.672V126.572C249.544 126.26 248.692 126.104 247.636 126.104C247.636 125.384 247.696 124.832 247.816 124.448H264.916V126.788C264.916 127.844 264.856 129.056 264.736 130.424C264.256 130.472 263.632 130.496 262.864 130.496C262.648 128.552 262.36 127.4 262 127.04C261.496 126.536 260.8 126.284 259.912 126.284H254.728V134.852L259.912 134.456H261.316V137.084H259.912L254.728 136.796V145.436Z"/>
</mask>
<path fill-rule="evenodd" clip-rule="evenodd" d="M114 5H121C126.523 5 131 9.47715 131 15V15.7709C127.335 11.6188 121.973 9 116 9H103.802C106.478 6.51765 110.062 5 114 5ZM116 14C118.727 14 121.285 14.7279 123.488 16H99.5392C99.729 15.3123 99.9666 14.6443 100.248 14H116ZM114 0C107.018 0 100.872 3.57778 97.294 9H79H74V14V94V99H79H131H136H188H193V94V14V9H188H151C145.027 9 139.665 11.6188 136 15.7709V15C136 6.71573 129.284 0 121 0H114ZM136 29C136 27.6148 136.188 26.2734 136.539 25H142V37H136V29ZM136 42H142H147V37V25V20H142H138.999C141.736 16.3567 146.093 14 151 14H188V94H136V42ZM79 94H131V42H114C103.974 42 95.671 34.6225 94.2235 25C94.0763 24.0214 94 23.0196 94 22V21V20C94 18.6301 94.1377 17.2924 94.4001 16C94.5381 15.3202 94.7105 14.6529 94.9156 14H79V94ZM131 37H114C106.743 37 100.69 31.8467 99.3001 25H130.461C130.812 26.2734 131 27.6148 131 29V37ZM15.4068 141.008C15.4068 143.048 14.6148 144.68 13.0308 145.904C11.4468 147.128 9.62277 147.74 7.55877 147.74C5.49477 147.74 3.14277 147.32 0.502768 146.48C0.478768 146.024 0.466766 145.292 0.466766 144.284C0.466766 143.276 0.574768 141.824 0.790768 139.928C1.43877 139.928 2.05077 139.988 2.62677 140.108V140.324C2.62677 143.828 4.25877 145.58 7.52277 145.58C8.65077 145.58 9.56277 145.304 10.2588 144.752C10.9548 144.176 11.3028 143.396 11.3028 142.412C11.3028 141.428 10.9308 140.564 10.1868 139.82C9.46677 139.076 8.57877 138.452 7.52277 137.948C6.49077 137.42 5.44677 136.868 4.39077 136.292C3.33477 135.692 2.43477 134.876 1.69077 133.844C0.970768 132.812 0.610768 131.588 0.610768 130.172C0.610768 128.252 1.31877 126.752 2.73477 125.672C4.15077 124.568 5.89077 124.016 7.95477 124.016C10.0188 124.016 12.1548 124.364 14.3628 125.06C14.3628 126.74 14.2068 128.588 13.8948 130.604C13.3908 130.604 12.8988 130.568 12.4188 130.496C12.0108 127.568 10.5708 126.104 8.09877 126.104C7.01877 126.104 6.14277 126.368 5.47077 126.896C4.79877 127.424 4.46277 128.156 4.46277 129.092C4.46277 130.004 4.83477 130.82 5.57877 131.54C6.34677 132.26 7.25877 132.872 8.31477 133.376C9.39477 133.88 10.4628 134.42 11.5188 134.996C12.5988 135.548 13.5108 136.34 14.2548 137.372C15.0228 138.38 15.4068 139.592 15.4068 141.008ZM42.0299 128.084V145.22C42.7259 145.508 43.5539 145.652 44.5139 145.652C44.5139 146.3 44.4779 146.852 44.4059 147.308H35.0099C35.0099 146.54 35.0579 145.988 35.1539 145.652C35.9459 145.532 36.5219 145.34 36.8819 145.076C37.2419 144.812 37.4219 144.344 37.4219 143.672V137.048H28.2419V145.22C28.9379 145.508 29.7659 145.652 30.7259 145.652V146.156C30.7259 146.396 30.6899 146.78 30.6179 147.308H21.2579V146.66C21.2579 146.348 21.3179 146.012 21.4379 145.652C22.2299 145.532 22.8059 145.34 23.1659 145.076C23.5259 144.812 23.7059 144.344 23.7059 143.672V126.572C23.0099 126.26 22.1579 126.104 21.1499 126.104C21.1499 125.384 21.2099 124.832 21.3299 124.448H30.6539C30.6779 124.616 30.6899 124.856 30.6899 125.168C30.6899 125.456 30.6299 125.768 30.5099 126.104C29.7419 126.2 29.1659 126.392 28.7819 126.68C28.4219 126.944 28.2419 127.412 28.2419 128.084V134.816H37.4219V126.536C36.7259 126.248 35.8979 126.104 34.9379 126.104V125.492C34.9379 125.228 34.9859 124.88 35.0819 124.448H44.4419V125.168C44.4419 125.456 44.3939 125.768 44.2979 126.104C43.5059 126.2 42.9299 126.392 42.5699 126.68C42.2099 126.944 42.0299 127.412 42.0299 128.084ZM55.8775 137.48H61.7095L58.7215 127.724L58.4335 129.164L55.8775 137.48ZM61.1695 147.308C61.1695 146.708 61.2175 146.156 61.3135 145.652C62.5135 145.364 63.4015 145.076 63.9775 144.788L62.3575 139.496H55.2655L53.5375 145.148C54.1615 145.484 55.0975 145.652 56.3455 145.652C56.3455 146.276 56.2975 146.828 56.2015 147.308H48.6775C48.6775 146.684 48.7255 146.132 48.8215 145.652C50.1655 145.34 51.0295 144.596 51.4135 143.42L57.6775 124.412C58.7575 124.172 60.2455 124.028 62.1415 123.98L68.3695 143.492C68.6335 144.284 68.9575 144.836 69.3415 145.148C69.7495 145.46 70.3615 145.628 71.1775 145.652C71.1295 146.372 71.0695 146.924 70.9975 147.308H61.1695ZM97.3521 145.652C97.3761 145.796 97.388 146 97.388 146.264C97.388 146.528 97.316 146.876 97.1721 147.308H90.8L84.4641 137.984C84.1281 137.504 83.792 137.24 83.456 137.192L82.412 138.2V145.22C83.108 145.508 83.9361 145.652 84.896 145.652V146.156C84.896 146.396 84.86 146.78 84.788 147.308H75.428V146.66C75.428 146.348 75.4881 146.012 75.608 145.652C76.4 145.532 76.9761 145.34 77.3361 145.076C77.696 144.812 77.876 144.344 77.876 143.672V126.572C77.18 126.26 76.328 126.104 75.32 126.104C75.32 125.384 75.3801 124.832 75.5 124.448H84.8241C84.8481 124.616 84.86 124.856 84.86 125.168C84.86 125.456 84.8 125.768 84.68 126.104C83.912 126.2 83.3361 126.392 82.952 126.68C82.592 126.944 82.412 127.412 82.412 128.084V135.428L91.4481 126.536C90.9201 126.272 90.104 126.116 89 126.068C88.952 125.876 88.928 125.648 88.928 125.384C88.928 125.096 89 124.784 89.1441 124.448H97.2801C97.2801 125.192 97.244 125.732 97.1721 126.068C95.732 126.068 94.4361 126.608 93.284 127.688L86.624 134.132C87.44 134.372 88.1841 135.02 88.856 136.076L93.86 143.456C94.412 144.32 94.9161 144.896 95.372 145.184C95.8521 145.448 96.512 145.604 97.3521 145.652ZM111.273 145.436H116.673C117.825 145.436 118.581 145.1 118.941 144.428C119.301 143.756 119.565 142.616 119.733 141.008C120.669 141.008 121.329 141.044 121.713 141.116C121.809 142.508 121.857 143.72 121.857 144.752C121.857 145.784 121.845 146.636 121.821 147.308H104.289V146.66C104.289 146.348 104.349 146.012 104.469 145.652C105.261 145.532 105.837 145.34 106.197 145.076C106.557 144.812 106.737 144.344 106.737 143.672V126.572C106.089 126.26 105.237 126.104 104.181 126.104C104.181 125.384 104.241 124.832 104.361 124.448H121.461V126.788C121.461 127.844 121.401 129.056 121.281 130.424C120.801 130.472 120.177 130.496 119.409 130.496C119.193 128.552 118.905 127.4 118.545 127.04C118.041 126.536 117.345 126.284 116.457 126.284H111.273V134.852L116.457 134.456H117.861V137.084H116.457L111.273 136.796V145.436ZM143.361 141.008C143.361 143.048 142.569 144.68 140.985 145.904C139.401 147.128 137.577 147.74 135.513 147.74C133.449 147.74 131.097 147.32 128.457 146.48C128.433 146.024 128.421 145.292 128.421 144.284C128.421 143.276 128.529 141.824 128.745 139.928C129.393 139.928 130.005 139.988 130.581 140.108V140.324C130.581 143.828 132.213 145.58 135.477 145.58C136.605 145.58 137.517 145.304 138.213 144.752C138.909 144.176 139.257 143.396 139.257 142.412C139.257 141.428 138.885 140.564 138.141 139.82C137.421 139.076 136.533 138.452 135.477 137.948C134.445 137.42 133.401 136.868 132.345 136.292C131.289 135.692 130.389 134.876 129.645 133.844C128.925 132.812 128.565 131.588 128.565 130.172C128.565 128.252 129.273 126.752 130.689 125.672C132.105 124.568 133.845 124.016 135.909 124.016C137.973 124.016 140.109 124.364 142.317 125.06C142.317 126.74 142.161 128.588 141.849 130.604C141.345 130.604 140.853 130.568 140.373 130.496C139.965 127.568 138.525 126.104 136.053 126.104C134.973 126.104 134.097 126.368 133.425 126.896C132.753 127.424 132.417 128.156 132.417 129.092C132.417 130.004 132.789 130.82 133.533 131.54C134.301 132.26 135.213 132.872 136.269 133.376C137.349 133.88 138.417 134.42 139.473 134.996C140.553 135.548 141.465 136.34 142.209 137.372C142.977 138.38 143.361 139.592 143.361 141.008ZM156.161 135.968H158.177C159.737 135.968 160.937 135.536 161.777 134.672C162.641 133.808 163.073 132.632 163.073 131.144C163.073 129.656 162.653 128.48 161.813 127.616C160.973 126.752 159.761 126.32 158.177 126.32H156.161V135.968ZM159.041 137.84H156.161V144.968C157.025 145.328 158.117 145.556 159.437 145.652C159.437 146.372 159.377 146.924 159.257 147.308H149.177V146.624C149.177 146.336 149.225 146.012 149.321 145.652C150.113 145.532 150.689 145.34 151.049 145.076C151.409 144.812 151.589 144.344 151.589 143.672V126.572C150.821 126.26 149.993 126.104 149.105 126.104V125.6C149.105 125.36 149.141 124.976 149.213 124.448H159.005C161.645 124.448 163.805 125.084 165.485 126.356C167.165 127.628 168.005 129.236 168.005 131.18C168.005 133.124 167.165 134.72 165.485 135.968C163.829 137.216 161.681 137.84 159.041 137.84ZM179.819 145.436H185.219C186.371 145.436 187.127 145.1 187.487 144.428C187.847 143.756 188.111 142.616 188.279 141.008C189.215 141.008 189.875 141.044 190.259 141.116C190.355 142.508 190.403 143.72 190.403 144.752C190.403 145.784 190.391 146.636 190.367 147.308H172.835V146.66C172.835 146.348 172.895 146.012 173.015 145.652C173.807 145.532 174.383 145.34 174.743 145.076C175.103 144.812 175.283 144.344 175.283 143.672V126.572C174.635 126.26 173.783 126.104 172.727 126.104C172.727 125.384 172.787 124.832 172.907 124.448H190.007V126.788C190.007 127.844 189.947 129.056 189.827 130.424C189.347 130.472 188.723 130.496 187.955 130.496C187.739 128.552 187.451 127.4 187.091 127.04C186.587 126.536 185.891 126.284 185.003 126.284H179.819V134.852L185.003 134.456H186.407V137.084H185.003L179.819 136.796V145.436ZM201.9 137.48H207.732L204.744 127.724L204.456 129.164L201.9 137.48ZM207.192 147.308C207.192 146.708 207.24 146.156 207.336 145.652C208.536 145.364 209.424 145.076 210 144.788L208.38 139.496H201.288L199.56 145.148C200.184 145.484 201.12 145.652 202.368 145.652C202.368 146.276 202.32 146.828 202.224 147.308H194.7C194.7 146.684 194.748 146.132 194.844 145.652C196.188 145.34 197.052 144.596 197.436 143.42L203.7 124.412C204.78 124.172 206.268 124.028 208.164 123.98L214.392 143.492C214.656 144.284 214.98 144.836 215.364 145.148C215.772 145.46 216.384 145.628 217.2 145.652C217.152 146.372 217.092 146.924 217.02 147.308H207.192ZM228.434 134.96H230.81C232.178 134.96 233.222 134.6 233.942 133.88C234.686 133.136 235.058 132.068 235.058 130.676C235.058 129.26 234.686 128.18 233.942 127.436C233.222 126.692 232.178 126.32 230.81 126.32H228.434V134.96ZM242.618 145.508C242.618 146.228 242.558 146.828 242.438 147.308H236.498L232.106 138.236C231.866 137.732 231.602 137.372 231.314 137.156C231.026 136.94 230.606 136.832 230.054 136.832H228.434V144.968C229.37 145.352 230.378 145.58 231.458 145.652C231.482 145.82 231.494 146.036 231.494 146.3C231.494 146.564 231.446 146.9 231.35 147.308H221.45V146.66C221.45 146.348 221.51 146.012 221.63 145.652C222.422 145.532 222.998 145.34 223.358 145.076C223.718 144.812 223.898 144.344 223.898 143.672V126.572C223.13 126.26 222.278 126.104 221.342 126.104C221.342 125.384 221.402 124.832 221.522 124.448H231.674C234.266 124.448 236.282 125 237.722 126.104C239.186 127.208 239.918 128.72 239.918 130.64C239.918 132.032 239.522 133.22 238.73 134.204C237.938 135.188 236.798 135.908 235.31 136.364C235.982 136.772 236.618 137.528 237.218 138.632L239.63 143.348C240.062 144.188 240.482 144.764 240.89 145.076C241.322 145.364 241.898 145.508 242.618 145.508ZM254.728 145.436H260.128C261.28 145.436 262.036 145.1 262.396 144.428C262.756 143.756 263.02 142.616 263.188 141.008C264.124 141.008 264.784 141.044 265.168 141.116C265.264 142.508 265.312 143.72 265.312 144.752C265.312 145.784 265.3 146.636 265.276 147.308H247.744V146.66C247.744 146.348 247.804 146.012 247.924 145.652C248.716 145.532 249.292 145.34 249.652 145.076C250.012 144.812 250.192 144.344 250.192 143.672V126.572C249.544 126.26 248.692 126.104 247.636 126.104C247.636 125.384 247.696 124.832 247.816 124.448H264.916V126.788C264.916 127.844 264.856 129.056 264.736 130.424C264.256 130.472 263.632 130.496 262.864 130.496C262.648 128.552 262.36 127.4 262 127.04C261.496 126.536 260.8 126.284 259.912 126.284H254.728V134.852L259.912 134.456H261.316V137.084H259.912L254.728 136.796V145.436Z" fill="#FFAA32"/>
<path d="M131 15.7709L130.25 16.4326L132 18.4151V15.7709H131ZM103.802 9L103.122 8.26683L101.253 10H103.802V9ZM123.488 16V17H127.221L123.988 15.1339L123.488 16ZM99.5392 16L98.5753 15.7339L98.2258 17H99.5392V16ZM100.248 14V13H99.5938L99.3318 13.5996L100.248 14ZM97.294 9V10H97.8323L98.1287 9.55071L97.294 9ZM74 9V8H73V9H74ZM74 99H73V100H74V99ZM193 99V100H194V99H193ZM193 9H194V8H193V9ZM136 15.7709H135V18.4151L136.75 16.4326L136 15.7709ZM136.539 25V24H135.778L135.575 24.7339L136.539 25ZM142 25H143V24H142V25ZM142 37V38H143V37H142ZM136 37H135V38H136V37ZM136 42V41H135V42H136ZM147 42V43H148V42H147ZM147 20H148V19H147V20ZM138.999 20L138.199 19.3994L136.997 21H138.999V20ZM188 14H189V13H188V14ZM188 94V95H189V94H188ZM136 94H135V95H136V94ZM131 94V95H132V94H131ZM79 94H78V95H79V94ZM131 42H132V41H131V42ZM94.2235 25L95.2124 24.8513L95.2124 24.8512L94.2235 25ZM94.4001 16L93.4201 15.8011L93.4201 15.8011L94.4001 16ZM94.9156 14L95.8697 14.2996L96.2778 13H94.9156V14ZM79 14V13H78V14H79ZM131 37V38H132V37H131ZM99.3001 25V24H98.0767L98.32 25.1989L99.3001 25ZM130.461 25L131.425 24.7339L131.222 24H130.461V25ZM13.0308 145.904L13.6422 146.695L13.6422 146.695L13.0308 145.904ZM0.502768 146.48L-0.49585 146.533L-0.459499 147.223L0.199561 147.433L0.502768 146.48ZM0.790768 139.928V138.928H-0.101777L-0.202805 139.815L0.790768 139.928ZM2.62677 140.108H3.62677V139.295L2.83071 139.129L2.62677 140.108ZM10.2588 144.752L10.8802 145.535L10.8883 145.529L10.8963 145.522L10.2588 144.752ZM10.1868 139.82L9.46817 140.515L9.47387 140.521L9.47966 140.527L10.1868 139.82ZM7.52277 137.948L7.06729 138.838L7.07958 138.845L7.09204 138.85L7.52277 137.948ZM4.39077 136.292L3.89676 137.161L3.9043 137.166L3.91191 137.17L4.39077 136.292ZM1.69077 133.844L0.870642 134.416L0.875068 134.423L0.879592 134.429L1.69077 133.844ZM2.73477 125.672L3.34125 126.467L3.34963 126.461L2.73477 125.672ZM14.3628 125.06H15.3628V124.327L14.6634 124.106L14.3628 125.06ZM13.8948 130.604V131.604H14.7519L14.883 130.757L13.8948 130.604ZM12.4188 130.496L11.4283 130.634L11.5315 131.374L12.2704 131.485L12.4188 130.496ZM5.47077 126.896L4.85295 126.11L4.85295 126.11L5.47077 126.896ZM5.57877 131.54L4.88335 132.259L4.88904 132.264L4.89483 132.27L5.57877 131.54ZM8.31477 133.376L7.88401 134.279L7.89188 134.282L8.31477 133.376ZM11.5188 134.996L11.0399 135.874L11.0517 135.88L11.0637 135.886L11.5188 134.996ZM14.2548 137.372L13.4436 137.957L13.4513 137.968L13.4593 137.978L14.2548 137.372ZM42.0299 145.22H41.0299V145.888L41.6475 146.144L42.0299 145.22ZM44.5139 145.652H45.5139V144.652H44.5139V145.652ZM44.4059 147.308V148.308H45.2604L45.3937 147.464L44.4059 147.308ZM35.0099 147.308H34.0099V148.308H35.0099V147.308ZM35.1539 145.652L35.0041 144.663L34.3689 144.76L34.1924 145.377L35.1539 145.652ZM36.8819 145.076L37.4732 145.882L37.4733 145.882L36.8819 145.076ZM37.4219 137.048H38.4219V136.048H37.4219V137.048ZM28.2419 137.048V136.048H27.2419V137.048H28.2419ZM28.2419 145.22H27.2419V145.888L27.8595 146.144L28.2419 145.22ZM30.7259 145.652H31.7259V144.652H30.7259V145.652ZM30.6179 147.308V148.308H31.4908L31.6087 147.443L30.6179 147.308ZM21.2579 147.308H20.2579V148.308H21.2579V147.308ZM21.4379 145.652L21.2881 144.663L20.6828 144.755L20.4892 145.336L21.4379 145.652ZM23.1659 145.076L23.7572 145.882L23.7573 145.882L23.1659 145.076ZM23.7059 126.572H24.7059V125.924L24.1149 125.659L23.7059 126.572ZM21.1499 126.104H20.1499V127.104H21.1499V126.104ZM21.3299 124.448V123.448H20.5947L20.3754 124.15L21.3299 124.448ZM30.6539 124.448L31.6438 124.307L31.5212 123.448H30.6539V124.448ZM30.5099 126.104L30.6339 127.096L31.2446 127.02L31.4516 126.44L30.5099 126.104ZM28.7819 126.68L29.3733 127.486L29.3819 127.48L28.7819 126.68ZM28.2419 134.816H27.2419V135.816H28.2419V134.816ZM37.4219 134.816V135.816H38.4219V134.816H37.4219ZM37.4219 126.536H38.4219V125.868L37.8042 125.612L37.4219 126.536ZM34.9379 126.104H33.9379V127.104H34.9379V126.104ZM35.0819 124.448V123.448H34.2797L34.1057 124.231L35.0819 124.448ZM44.4419 124.448H45.4419V123.448H44.4419V124.448ZM44.2979 126.104L44.4182 127.097L45.0771 127.017L45.2594 126.379L44.2979 126.104ZM42.5699 126.68L43.1613 127.486L43.1782 127.474L43.1946 127.461L42.5699 126.68ZM61.7095 137.48V138.48H63.0616L62.6657 137.187L61.7095 137.48ZM55.8775 137.48L54.9217 137.186L54.524 138.48H55.8775V137.48ZM58.7215 127.724L59.6777 127.431L57.7409 127.528L58.7215 127.724ZM58.4335 129.164L59.3894 129.458L59.4042 129.41L59.4141 129.36L58.4335 129.164ZM61.3135 145.652L61.0802 144.68L60.452 144.83L60.3312 145.465L61.3135 145.652ZM61.1695 147.308H60.1695V148.308H61.1695V147.308ZM63.9775 144.788L64.4247 145.682L65.1813 145.304L64.9337 144.495L63.9775 144.788ZM62.3575 139.496L63.3137 139.203L63.0972 138.496H62.3575V139.496ZM55.2655 139.496V138.496H54.5256L54.3092 139.204L55.2655 139.496ZM53.5375 145.148L52.5812 144.856L52.3415 145.64L53.0634 146.028L53.5375 145.148ZM56.3455 145.652H57.3455V144.652H56.3455V145.652ZM56.2015 147.308V148.308H57.0213L57.1821 147.504L56.2015 147.308ZM48.6775 147.308H47.6775V148.308H48.6775V147.308ZM48.8215 145.652L48.5954 144.678L47.9674 144.824L47.8409 145.456L48.8215 145.652ZM51.4135 143.42L50.4638 143.107L50.4629 143.11L51.4135 143.42ZM57.6775 124.412L57.4606 123.436L56.9057 123.559L56.7278 124.099L57.6775 124.412ZM62.1415 123.98L63.0942 123.676L62.8661 122.961L62.1162 122.98L62.1415 123.98ZM68.3695 143.492L67.4168 143.796L67.4208 143.808L68.3695 143.492ZM69.3415 145.148L68.7109 145.924L68.7224 145.933L68.7341 145.942L69.3415 145.148ZM71.1775 145.652L72.1753 145.719L72.2443 144.683L71.2069 144.652L71.1775 145.652ZM70.9975 147.308V148.308H71.8275L71.9804 147.492L70.9975 147.308ZM97.3521 145.652L98.3384 145.488L98.207 144.699L97.4091 144.654L97.3521 145.652ZM97.1721 147.308V148.308H97.8928L98.1207 147.624L97.1721 147.308ZM90.8 147.308L89.9729 147.87L90.2705 148.308H90.8V147.308ZM84.4641 137.984L85.2912 137.422L85.2833 137.411L84.4641 137.984ZM83.456 137.192L83.5975 136.202L83.1133 136.133L82.7615 136.473L83.456 137.192ZM82.412 138.2L81.7175 137.481L81.412 137.775V138.2H82.412ZM82.412 145.22H81.412V145.888L82.0297 146.144L82.412 145.22ZM84.896 145.652H85.896V144.652H84.896V145.652ZM84.788 147.308V148.308H85.6609L85.7789 147.443L84.788 147.308ZM75.428 147.308H74.428V148.308H75.428V147.308ZM75.608 145.652L75.4582 144.663L74.8529 144.755L74.6594 145.336L75.608 145.652ZM77.3361 145.076L77.9274 145.882L77.9274 145.882L77.3361 145.076ZM77.876 126.572H78.876V125.924L78.2851 125.659L77.876 126.572ZM75.32 126.104H74.32V127.104H75.32V126.104ZM75.5 124.448V123.448H74.7648L74.5456 124.15L75.5 124.448ZM84.8241 124.448L85.814 124.307L85.6913 123.448H84.8241V124.448ZM84.68 126.104L84.8041 127.096L85.4148 127.02L85.6218 126.44L84.68 126.104ZM82.952 126.68L83.5434 127.486L83.552 127.48L82.952 126.68ZM82.412 135.428H81.412V137.815L83.1135 136.141L82.412 135.428ZM91.4481 126.536L92.1495 127.249L93.1468 126.267L91.8953 125.642L91.4481 126.536ZM89 126.068L88.0299 126.311L88.2109 127.035L88.9566 127.067L89 126.068ZM89.1441 124.448V123.448H88.4847L88.2249 124.054L89.1441 124.448ZM97.2801 124.448H98.2801V123.448H97.2801V124.448ZM97.1721 126.068V127.068H97.9805L98.1499 126.278L97.1721 126.068ZM93.284 127.688L92.6001 126.958L92.5944 126.964L92.5887 126.969L93.284 127.688ZM86.624 134.132L85.9287 133.413L84.695 134.607L86.3419 135.091L86.624 134.132ZM88.856 136.076L88.0124 136.613L88.0202 136.625L88.0284 136.637L88.856 136.076ZM93.86 143.456L94.7027 142.918L94.6954 142.906L94.6877 142.895L93.86 143.456ZM95.372 145.184L94.838 146.029L94.8636 146.046L94.8901 146.06L95.372 145.184ZM111.273 145.436H110.273V146.436H111.273V145.436ZM118.941 144.428L118.059 143.956L118.059 143.956L118.941 144.428ZM119.733 141.008V140.008H118.832L118.738 140.904L119.733 141.008ZM121.713 141.116L122.71 141.047L122.657 140.276L121.897 140.133L121.713 141.116ZM121.821 147.308V148.308H122.785L122.82 147.344L121.821 147.308ZM104.289 147.308H103.289V148.308H104.289V147.308ZM104.469 145.652L104.319 144.663L103.713 144.755L103.52 145.336L104.469 145.652ZM106.197 145.076L106.788 145.882L106.788 145.882L106.197 145.076ZM106.737 126.572H107.737V125.944L107.17 125.671L106.737 126.572ZM104.181 126.104H103.181V127.104H104.181V126.104ZM104.361 124.448V123.448H103.625L103.406 124.15L104.361 124.448ZM121.461 124.448H122.461V123.448H121.461V124.448ZM121.281 130.424L121.38 131.419L122.204 131.337L122.277 130.511L121.281 130.424ZM119.409 130.496L118.415 130.606L118.513 131.496H119.409V130.496ZM111.273 126.284V125.284H110.273V126.284H111.273ZM111.273 134.852H110.273V135.931L111.349 135.849L111.273 134.852ZM116.457 134.456V133.456H116.418L116.38 133.459L116.457 134.456ZM117.861 134.456H118.861V133.456H117.861V134.456ZM117.861 137.084V138.084H118.861V137.084H117.861ZM116.457 137.084L116.401 138.082L116.429 138.084H116.457V137.084ZM111.273 136.796L111.328 135.798L110.273 135.739V136.796H111.273ZM140.985 145.904L141.597 146.695L141.597 146.695L140.985 145.904ZM128.457 146.48L127.459 146.533L127.495 147.223L128.154 147.433L128.457 146.48ZM128.745 139.928V138.928H127.853L127.752 139.815L128.745 139.928ZM130.581 140.108H131.581V139.295L130.785 139.129L130.581 140.108ZM138.213 144.752L138.835 145.535L138.843 145.529L138.851 145.522L138.213 144.752ZM138.141 139.82L137.423 140.515L137.429 140.521L137.434 140.527L138.141 139.82ZM135.477 137.948L135.022 138.838L135.034 138.845L135.047 138.85L135.477 137.948ZM132.345 136.292L131.851 137.161L131.859 137.166L131.867 137.17L132.345 136.292ZM129.645 133.844L128.825 134.416L128.83 134.423L128.834 134.429L129.645 133.844ZM130.689 125.672L131.296 126.467L131.304 126.461L130.689 125.672ZM142.317 125.06H143.317V124.327L142.618 124.106L142.317 125.06ZM141.849 130.604V131.604H142.707L142.838 130.757L141.849 130.604ZM140.373 130.496L139.383 130.634L139.486 131.374L140.225 131.485L140.373 130.496ZM133.533 131.54L132.838 132.259L132.844 132.264L132.85 132.27L133.533 131.54ZM136.269 133.376L135.839 134.279L135.847 134.282L136.269 133.376ZM139.473 134.996L138.995 135.874L139.006 135.88L139.018 135.886L139.473 134.996ZM142.209 137.372L141.398 137.957L141.406 137.968L141.414 137.978L142.209 137.372ZM156.161 135.968H155.161V136.968H156.161V135.968ZM161.777 134.672L161.069 133.965L161.06 133.975L161.777 134.672ZM156.161 126.32V125.32H155.161V126.32H156.161ZM156.161 137.84V136.84H155.161V137.84H156.161ZM156.161 144.968H155.161V145.635L155.776 145.891L156.161 144.968ZM159.437 145.652H160.437V144.722L159.509 144.655L159.437 145.652ZM159.257 147.308V148.308H159.992L160.211 147.606L159.257 147.308ZM149.177 147.308H148.177V148.308H149.177V147.308ZM149.321 145.652L149.171 144.663L148.523 144.761L148.354 145.394L149.321 145.652ZM151.049 145.076L151.64 145.882L151.64 145.882L151.049 145.076ZM151.589 126.572H152.589V125.899L151.965 125.646L151.589 126.572ZM149.105 126.104H148.105V127.104H149.105V126.104ZM149.213 124.448V123.448H148.34L148.222 124.313L149.213 124.448ZM165.485 126.356L164.881 127.153L164.881 127.153L165.485 126.356ZM165.485 135.968L164.888 135.165L164.883 135.169L165.485 135.968ZM179.819 145.436H178.819V146.436H179.819V145.436ZM187.487 144.428L186.605 143.956L186.605 143.956L187.487 144.428ZM188.279 141.008V140.008H187.378L187.284 140.904L188.279 141.008ZM190.259 141.116L191.256 141.047L191.203 140.276L190.443 140.133L190.259 141.116ZM190.367 147.308V148.308H191.332L191.366 147.344L190.367 147.308ZM172.835 147.308H171.835V148.308H172.835V147.308ZM173.015 145.652L172.865 144.663L172.26 144.755L172.066 145.336L173.015 145.652ZM174.743 145.076L175.334 145.882L175.334 145.882L174.743 145.076ZM175.283 126.572H176.283V125.944L175.717 125.671L175.283 126.572ZM172.727 126.104H171.727V127.104H172.727V126.104ZM172.907 124.448V123.448H172.172L171.952 124.15L172.907 124.448ZM190.007 124.448H191.007V123.448H190.007V124.448ZM189.827 130.424L189.926 131.419L190.751 131.337L190.823 130.511L189.827 130.424ZM187.955 130.496L186.961 130.606L187.06 131.496H187.955V130.496ZM187.091 127.04L186.384 127.747L186.384 127.747L187.091 127.04ZM179.819 126.284V125.284H178.819V126.284H179.819ZM179.819 134.852H178.819V135.931L179.895 135.849L179.819 134.852ZM185.003 134.456V133.456H184.965L184.927 133.459L185.003 134.456ZM186.407 134.456H187.407V133.456H186.407V134.456ZM186.407 137.084V138.084H187.407V137.084H186.407ZM185.003 137.084L184.947 138.082L184.975 138.084H185.003V137.084ZM179.819 136.796L179.874 135.798L178.819 135.739V136.796H179.819ZM207.732 137.48V138.48H209.084L208.688 137.187L207.732 137.48ZM201.9 137.48L200.944 137.186L200.546 138.48H201.9V137.48ZM204.744 127.724L205.7 127.431L203.763 127.528L204.744 127.724ZM204.456 129.164L205.412 129.458L205.426 129.41L205.436 129.36L204.456 129.164ZM207.336 145.652L207.102 144.68L206.474 144.83L206.353 145.465L207.336 145.652ZM207.192 147.308H206.192V148.308H207.192V147.308ZM210 144.788L210.447 145.682L211.204 145.304L210.956 144.495L210 144.788ZM208.38 139.496L209.336 139.203L209.119 138.496H208.38V139.496ZM201.288 139.496V138.496H200.548L200.331 139.204L201.288 139.496ZM199.56 145.148L198.603 144.856L198.364 145.64L199.086 146.028L199.56 145.148ZM202.368 145.652H203.368V144.652H202.368V145.652ZM202.224 147.308V148.308H203.043L203.204 147.504L202.224 147.308ZM194.7 147.308H193.7V148.308H194.7V147.308ZM194.844 145.652L194.618 144.678L193.99 144.824L193.863 145.456L194.844 145.652ZM197.436 143.42L196.486 143.107L196.485 143.11L197.436 143.42ZM203.7 124.412L203.483 123.436L202.928 123.559L202.75 124.099L203.7 124.412ZM208.164 123.98L209.116 123.676L208.888 122.961L208.138 122.98L208.164 123.98ZM214.392 143.492L213.439 143.796L213.443 143.808L214.392 143.492ZM215.364 145.148L214.733 145.924L214.745 145.933L214.756 145.942L215.364 145.148ZM217.2 145.652L218.197 145.718L218.267 144.683L217.229 144.652L217.2 145.652ZM217.02 147.308V148.308H217.85L218.003 147.492L217.02 147.308ZM228.434 134.96H227.434V135.96H228.434V134.96ZM233.942 127.436L233.224 128.131L233.229 128.137L233.235 128.143L233.942 127.436ZM228.434 126.32V125.32H227.434V126.32H228.434ZM242.438 147.308V148.308H243.219L243.408 147.551L242.438 147.308ZM242.618 145.508H243.618V144.508H242.618V145.508ZM236.498 147.308L235.598 147.744L235.871 148.308H236.498V147.308ZM232.106 138.236L231.203 138.666L231.206 138.672L232.106 138.236ZM231.314 137.156L230.714 137.956L230.714 137.956L231.314 137.156ZM228.434 136.832V135.832H227.434V136.832H228.434ZM228.434 144.968H227.434V145.639L228.055 145.893L228.434 144.968ZM231.458 145.652L232.448 145.511L232.334 144.708L231.525 144.654L231.458 145.652ZM231.35 147.308V148.308H232.142L232.324 147.537L231.35 147.308ZM221.45 147.308H220.45V148.308H221.45V147.308ZM221.63 145.652L221.48 144.663L220.875 144.755L220.682 145.336L221.63 145.652ZM223.358 145.076L223.95 145.882L223.95 145.882L223.358 145.076ZM223.898 126.572H224.898V125.899L224.275 125.646L223.898 126.572ZM221.342 126.104H220.342V127.104H221.342V126.104ZM221.522 124.448V123.448H220.787L220.568 124.15L221.522 124.448ZM237.722 126.104L237.114 126.898L237.12 126.902L237.722 126.104ZM238.73 134.204L239.509 134.831L239.509 134.831L238.73 134.204ZM235.31 136.364L235.017 135.408L232.885 136.061L234.791 137.219L235.31 136.364ZM237.218 138.632L238.109 138.177L238.103 138.166L238.097 138.154L237.218 138.632ZM239.63 143.348L238.74 143.803L238.741 143.805L239.63 143.348ZM240.89 145.076L240.283 145.87L240.309 145.89L240.336 145.908L240.89 145.076ZM254.728 145.436H253.728V146.436H254.728V145.436ZM262.396 144.428L261.515 143.956L261.515 143.956L262.396 144.428ZM263.188 141.008V140.008H262.287L262.194 140.904L263.188 141.008ZM265.168 141.116L266.166 141.047L266.113 140.276L265.353 140.133L265.168 141.116ZM265.276 147.308V148.308H266.241L266.276 147.344L265.276 147.308ZM247.744 147.308H246.744V148.308H247.744V147.308ZM247.924 145.652L247.775 144.663L247.169 144.755L246.976 145.336L247.924 145.652ZM249.652 145.076L250.244 145.882L250.244 145.882L249.652 145.076ZM250.192 126.572H251.192V125.944L250.626 125.671L250.192 126.572ZM247.636 126.104H246.636V127.104H247.636V126.104ZM247.816 124.448V123.448H247.081L246.862 124.15L247.816 124.448ZM264.916 124.448H265.916V123.448H264.916V124.448ZM264.736 130.424L264.836 131.419L265.66 131.337L265.732 130.511L264.736 130.424ZM262.864 130.496L261.87 130.606L261.969 131.496H262.864V130.496ZM262 127.04L262.707 126.333L262.707 126.333L262 127.04ZM254.728 126.284V125.284H253.728V126.284H254.728ZM254.728 134.852H253.728V135.931L254.804 135.849L254.728 134.852ZM259.912 134.456V133.456H259.874L259.836 133.459L259.912 134.456ZM261.316 134.456H262.316V133.456H261.316V134.456ZM261.316 137.084V138.084H262.316V137.084H261.316ZM259.912 137.084L259.857 138.082L259.885 138.084H259.912V137.084ZM254.728 136.796L254.784 135.798L253.728 135.739V136.796H254.728ZM121 4H114V6H121V4ZM132 15C132 8.92487 127.075 4 121 4V6C125.971 6 130 10.0294 130 15H132ZM132 15.7709V15H130V15.7709H132ZM116 10C121.675 10 126.767 12.4865 130.25 16.4326L131.75 15.1091C127.903 10.7511 122.272 8 116 8V10ZM103.802 10H116V8H103.802V10ZM114 4C109.8 4 105.976 5.61974 103.122 8.26683L104.482 9.73317C106.981 7.41556 110.324 6 114 6V4ZM123.988 15.1339C121.637 13.7764 118.908 13 116 13V15C118.547 15 120.933 15.6793 122.988 16.8661L123.988 15.1339ZM99.5392 17H123.488V15H99.5392V17ZM99.3318 13.5996C99.0314 14.2872 98.7779 15 98.5753 15.7339L100.503 16.2661C100.68 15.6245 100.902 15.0015 101.164 14.4004L99.3318 13.5996ZM116 13H100.248V15H116V13ZM98.1287 9.55071C101.529 4.39706 107.368 1 114 1V-1C106.668 -1 100.214 2.75849 96.4594 8.44929L98.1287 9.55071ZM79 10H97.294V8H79V10ZM74 10H79V8H74V10ZM75 14V9H73V14H75ZM75 94V14H73V94H75ZM75 99V94H73V99H75ZM79 98H74V100H79V98ZM131 98H79V100H131V98ZM131 100H136V98H131V100ZM136 100H188V98H136V100ZM188 100H193V98H188V100ZM194 99V94H192V99H194ZM194 94V14H192V94H194ZM194 14V9H192V14H194ZM193 8H188V10H193V8ZM188 8H151V10H188V8ZM151 8C144.728 8 139.097 10.7511 135.25 15.1091L136.75 16.4326C140.233 12.4865 145.325 10 151 10V8ZM135 15V15.7709H137V15H135ZM121 1C128.732 1 135 7.26801 135 15H137C137 6.16344 129.837 -1 121 -1V1ZM114 1H121V-1H114V1ZM135.575 24.7339C135.2 26.0932 135 27.5241 135 29H137C137 27.7055 137.175 26.4536 137.503 25.2661L135.575 24.7339ZM136.539 26H142V24H136.539V26ZM141 25V37H143V25H141ZM142 36H136V38H142V36ZM135 29V37H137V29H135ZM142 41H136V43H142V41ZM147 41H142V43H147V41ZM146 37V42H148V37H146ZM146 25V37H148V25H146ZM146 20V25H148V20H146ZM142 21H147V19H142V21ZM138.999 21H142V19H138.999V21ZM151 13C145.765 13 141.117 15.5154 138.199 19.3994L139.798 20.6006C142.354 17.1979 146.42 15 151 15V13ZM188 13H151V15H188V13ZM189 94V14H187V94H189ZM136 95H188V93H136V95ZM135 42V94H137V42H135ZM131 93H79V95H131V93ZM130 42V94H132V42H130ZM114 43H131V41H114V43ZM93.2346 25.1487C94.7546 35.2533 103.472 43 114 43V41C104.476 41 96.5873 33.9918 95.2124 24.8513L93.2346 25.1487ZM93 22C93 23.0696 93.08 24.1211 93.2346 25.1488L95.2124 24.8512C95.0726 23.9217 95 22.9697 95 22H93ZM93 21V22H95V21H93ZM93 20V21H95V20H93ZM93.4201 15.8011C93.1445 17.1586 93 18.563 93 20H95C95 18.6973 95.1309 17.4263 95.3801 16.1989L93.4201 15.8011ZM93.9616 13.7004C93.7462 14.3861 93.565 15.0871 93.4201 15.8011L95.3801 16.1989C95.5111 15.5533 95.6749 14.9196 95.8697 14.2996L93.9616 13.7004ZM79 15H94.9156V13H79V15ZM80 94V14H78V94H80ZM131 36H114V38H131V36ZM114 36C107.228 36 101.577 31.1909 100.28 24.8011L98.32 25.1989C99.8026 32.5025 106.258 38 114 38V36ZM99.3001 26H130.461V24H99.3001V26ZM129.497 25.2661C129.825 26.4536 130 27.7055 130 29H132C132 27.524 131.8 26.0932 131.425 24.7339L129.497 25.2661ZM130 29V37H132V29H130ZM13.6422 146.695C15.4767 145.278 16.4068 143.351 16.4068 141.008H14.4068C14.4068 142.745 13.7528 144.082 12.4193 145.113L13.6422 146.695ZM7.55877 148.74C9.83665 148.74 11.8773 148.059 13.6422 146.695L12.4193 145.113C11.0162 146.197 9.40889 146.74 7.55877 146.74V148.74ZM0.199561 147.433C2.90632 148.294 5.36351 148.74 7.55877 148.74V146.74C5.62602 146.74 3.37922 146.346 0.805975 145.527L0.199561 147.433ZM-0.533234 144.284C-0.533234 145.294 -0.521334 146.048 -0.49585 146.533L1.50139 146.427C1.47887 146 1.46677 145.29 1.46677 144.284H-0.533234ZM-0.202805 139.815C-0.420028 141.722 -0.533234 143.218 -0.533234 144.284H1.46677C1.46677 143.334 1.56956 141.926 1.78434 140.041L-0.202805 139.815ZM2.83071 139.129C2.18128 138.994 1.50048 138.928 0.790768 138.928V140.928C1.37705 140.928 1.92025 140.982 2.42282 141.087L2.83071 139.129ZM3.62677 140.324V140.108H1.62677V140.324H3.62677ZM7.52277 144.58C6.06381 144.58 5.14827 144.192 4.58249 143.584C4.00425 142.964 3.62677 141.939 3.62677 140.324H1.62677C1.62677 142.213 2.06528 143.816 3.11905 144.948C4.18526 146.092 5.71772 146.58 7.52277 146.58V144.58ZM9.63737 143.969C9.16121 144.346 8.48704 144.58 7.52277 144.58V146.58C8.8145 146.58 9.96433 146.262 10.8802 145.535L9.63737 143.969ZM10.3028 142.412C10.3028 143.128 10.0653 143.614 9.6212 143.982L10.8963 145.522C11.8442 144.738 12.3028 143.664 12.3028 142.412H10.3028ZM9.47966 140.527C10.0505 141.098 10.3028 141.713 10.3028 142.412H12.3028C12.3028 141.143 11.811 140.03 10.8939 139.113L9.47966 140.527ZM7.09204 138.85C8.05438 139.31 8.84108 139.867 9.46817 140.515L10.9054 139.125C10.0925 138.285 9.10316 137.594 7.9535 137.046L7.09204 138.85ZM3.91191 137.17C4.97536 137.75 6.02716 138.306 7.06729 138.838L7.97824 137.058C6.95438 136.534 5.91817 135.986 4.86962 135.414L3.91191 137.17ZM0.879592 134.429C1.70355 135.572 2.70988 136.487 3.89676 137.161L4.88477 135.423C3.95966 134.897 3.16599 134.18 2.50194 133.259L0.879592 134.429ZM-0.389232 130.172C-0.389232 131.766 0.0191689 133.196 0.870642 134.416L2.51089 133.272C1.92237 132.428 1.61077 131.41 1.61077 130.172H-0.389232ZM2.12832 124.877C0.442715 126.163 -0.389232 127.968 -0.389232 130.172H1.61077C1.61077 128.536 2.19482 127.341 3.34122 126.467L2.12832 124.877ZM7.95477 123.016C5.70287 123.016 3.73725 123.622 2.1199 124.883L3.34963 126.461C4.56429 125.514 6.07867 125.016 7.95477 125.016V123.016ZM14.6634 124.106C12.3698 123.383 10.1323 123.016 7.95477 123.016V125.016C9.90522 125.016 11.9397 125.345 14.0621 126.014L14.6634 124.106ZM14.883 130.757C15.2012 128.701 15.3628 126.801 15.3628 125.06H13.3628C13.3628 126.679 13.2123 128.475 12.9065 130.451L14.883 130.757ZM12.2704 131.485C12.8014 131.565 13.343 131.604 13.8948 131.604V129.604C13.4385 129.604 12.9962 129.571 12.5671 129.507L12.2704 131.485ZM8.09877 127.104C9.12526 127.104 9.82527 127.4 10.3198 127.903C10.836 128.428 11.2414 129.293 11.4283 130.634L13.4092 130.358C13.1881 128.772 12.6696 127.44 11.7457 126.501C10.8003 125.54 9.54428 125.104 8.09877 125.104V127.104ZM6.08859 127.682C6.54234 127.326 7.18272 127.104 8.09877 127.104V125.104C6.85481 125.104 5.7432 125.41 4.85295 126.11L6.08859 127.682ZM5.46277 129.092C5.46277 128.429 5.68304 128.001 6.08859 127.682L4.85295 126.11C3.9145 126.847 3.46277 127.883 3.46277 129.092H5.46277ZM6.27419 130.821C5.69605 130.262 5.46277 129.695 5.46277 129.092H3.46277C3.46277 130.313 3.97349 131.378 4.88335 132.259L6.27419 130.821ZM8.74551 132.474C7.77205 132.009 6.94785 131.453 6.26271 130.81L4.89483 132.27C5.74569 133.067 6.74548 133.735 7.88403 134.278L8.74551 132.474ZM11.9976 134.118C10.9234 133.532 9.83677 132.983 8.73765 132.47L7.89188 134.282C8.95277 134.777 10.0021 135.308 11.0399 135.874L11.9976 134.118ZM15.0659 136.787C14.2339 135.633 13.2021 134.733 11.9739 134.106L11.0637 135.886C11.9955 136.363 12.7877 137.047 13.4436 137.957L15.0659 136.787ZM16.4068 141.008C16.4068 139.4 15.9664 137.968 15.0502 136.766L13.4593 137.978C14.0791 138.792 14.4068 139.784 14.4068 141.008H16.4068ZM43.0299 145.22V128.084H41.0299V145.22H43.0299ZM44.5139 144.652C43.6505 144.652 42.9587 144.522 42.4122 144.296L41.6475 146.144C42.4931 146.494 43.4573 146.652 44.5139 146.652V144.652ZM45.3937 147.464C45.4763 146.94 45.5139 146.333 45.5139 145.652H43.5139C43.5139 146.267 43.4795 146.764 43.4181 147.152L45.3937 147.464ZM35.0099 148.308H44.4059V146.308H35.0099V148.308ZM34.1924 145.377C34.0551 145.858 34.0099 146.531 34.0099 147.308H36.0099C36.0099 146.549 36.0607 146.118 36.1154 145.927L34.1924 145.377ZM36.2905 144.27C36.1271 144.389 35.7445 144.551 35.0041 144.663L35.3037 146.641C36.1473 146.513 36.9167 146.291 37.4732 145.882L36.2905 144.27ZM36.4219 143.672C36.4219 143.925 36.3873 144.08 36.3535 144.168C36.3236 144.246 36.2975 144.264 36.2905 144.27L37.4733 145.882C38.2004 145.349 38.4219 144.495 38.4219 143.672H36.4219ZM36.4219 137.048V143.672H38.4219V137.048H36.4219ZM28.2419 138.048H37.4219V136.048H28.2419V138.048ZM29.2419 145.22V137.048H27.2419V145.22H29.2419ZM30.7259 144.652C29.8625 144.652 29.1707 144.522 28.6242 144.296L27.8595 146.144C28.7051 146.494 29.6693 146.652 30.7259 146.652V144.652ZM31.7259 146.156V145.652H29.7259V146.156H31.7259ZM31.6087 147.443C31.6813 146.911 31.7259 146.469 31.7259 146.156H29.7259C29.7259 146.323 29.6985 146.649 29.6271 147.173L31.6087 147.443ZM21.2579 148.308H30.6179V146.308H21.2579V148.308ZM20.2579 146.66V147.308H22.2579V146.66H20.2579ZM20.4892 145.336C20.3423 145.776 20.2579 146.22 20.2579 146.66H22.2579C22.2579 146.476 22.2935 146.248 22.3866 145.968L20.4892 145.336ZM22.5745 144.27C22.4111 144.389 22.0285 144.551 21.2881 144.663L21.5877 146.641C22.4313 146.513 23.2007 146.291 23.7572 145.882L22.5745 144.27ZM22.7059 143.672C22.7059 143.925 22.6713 144.08 22.6375 144.168C22.6076 144.246 22.5815 144.264 22.5745 144.27L23.7573 145.882C24.4844 145.349 24.7059 144.495 24.7059 143.672H22.7059ZM22.7059 126.572V143.672H24.7059V126.572H22.7059ZM21.1499 127.104C22.0601 127.104 22.7638 127.246 23.2968 127.485L24.1149 125.659C23.256 125.274 22.2557 125.104 21.1499 125.104V127.104ZM20.3754 124.15C20.2103 124.678 20.1499 125.349 20.1499 126.104H22.1499C22.1499 125.419 22.2095 124.986 22.2844 124.746L20.3754 124.15ZM30.6539 123.448H21.3299V125.448H30.6539V123.448ZM31.6899 125.168C31.6899 124.841 31.6779 124.545 31.6438 124.307L29.6639 124.589C29.6779 124.687 29.6899 124.871 29.6899 125.168H31.6899ZM31.4516 126.44C31.6013 126.021 31.6899 125.594 31.6899 125.168H29.6899C29.6899 125.318 29.6585 125.515 29.5682 125.768L31.4516 126.44ZM29.3819 127.48C29.5661 127.342 29.9436 127.183 30.6339 127.096L30.3859 125.112C29.5402 125.217 28.7657 125.442 28.1819 125.88L29.3819 127.48ZM29.2419 128.084C29.2419 127.831 29.2765 127.676 29.3102 127.588C29.3402 127.51 29.3663 127.492 29.3733 127.486L28.1905 125.874C27.4634 126.407 27.2419 127.261 27.2419 128.084H29.2419ZM29.2419 134.816V128.084H27.2419V134.816H29.2419ZM37.4219 133.816H28.2419V135.816H37.4219V133.816ZM36.4219 126.536V134.816H38.4219V126.536H36.4219ZM34.9379 127.104C35.8013 127.104 36.4931 127.234 37.0395 127.46L37.8042 125.612C36.9587 125.262 35.9945 125.104 34.9379 125.104V127.104ZM33.9379 125.492V126.104H35.9379V125.492H33.9379ZM34.1057 124.231C34.003 124.693 33.9379 125.123 33.9379 125.492H35.9379C35.9379 125.333 35.9688 125.067 36.0581 124.665L34.1057 124.231ZM44.4419 123.448H35.0819V125.448H44.4419V123.448ZM45.4419 125.168V124.448H43.4419V125.168H45.4419ZM45.2594 126.379C45.3757 125.972 45.4419 125.566 45.4419 125.168H43.4419C43.4419 125.346 43.4121 125.564 43.3364 125.829L45.2594 126.379ZM43.1946 127.461C43.3383 127.346 43.6924 127.185 44.4182 127.097L44.1776 125.111C43.3194 125.215 42.5215 125.438 41.9452 125.899L43.1946 127.461ZM43.0299 128.084C43.0299 127.831 43.0645 127.676 43.0982 127.588C43.1282 127.51 43.1543 127.492 43.1613 127.486L41.9785 125.874C41.2514 126.407 41.0299 127.261 41.0299 128.084H43.0299ZM61.7095 136.48H55.8775V138.48H61.7095V136.48ZM57.7654 128.017L60.7534 137.773L62.6657 137.187L59.6777 127.431L57.7654 128.017ZM59.4141 129.36L59.7021 127.92L57.7409 127.528L57.4529 128.968L59.4141 129.36ZM56.8334 137.774L59.3894 129.458L57.4777 128.87L54.9217 137.186L56.8334 137.774ZM60.3312 145.465C60.2217 146.04 60.1695 146.655 60.1695 147.308H62.1695C62.1695 146.761 62.2134 146.272 62.2959 145.839L60.3312 145.465ZM63.5303 143.894C63.0588 144.129 62.2604 144.396 61.0802 144.68L61.5469 146.624C62.7666 146.332 63.7443 146.023 64.4247 145.682L63.5303 143.894ZM61.4013 139.789L63.0213 145.081L64.9337 144.495L63.3137 139.203L61.4013 139.789ZM55.2655 140.496H62.3575V138.496H55.2655V140.496ZM54.4938 145.44L56.2218 139.788L54.3092 139.204L52.5812 144.856L54.4938 145.44ZM56.3455 144.652C55.1546 144.652 54.4175 144.486 54.0116 144.268L53.0634 146.028C53.9055 146.482 55.0405 146.652 56.3455 146.652V144.652ZM57.1821 147.504C57.294 146.945 57.3455 146.325 57.3455 145.652H55.3455C55.3455 146.227 55.3011 146.711 55.2209 147.112L57.1821 147.504ZM48.6775 148.308H56.2015V146.308H48.6775V148.308ZM47.8409 145.456C47.7291 146.015 47.6775 146.635 47.6775 147.308H49.6775C49.6775 146.733 49.722 146.249 49.8021 145.848L47.8409 145.456ZM50.4629 143.11C50.2018 143.909 49.6454 144.434 48.5954 144.678L49.0476 146.626C50.6856 146.246 51.8573 145.283 52.3641 143.73L50.4629 143.11ZM56.7278 124.099L50.4638 143.107L52.3633 143.733L58.6273 124.725L56.7278 124.099ZM62.1162 122.98C60.1944 123.029 58.6325 123.175 57.4606 123.436L57.8945 125.388C58.8825 125.169 60.2966 125.027 62.1668 124.98L62.1162 122.98ZM69.3222 143.188L63.0942 123.676L61.1889 124.284L67.4169 143.796L69.3222 143.188ZM69.9721 144.372C69.8055 144.237 69.5588 143.898 69.3182 143.176L67.4208 143.808C67.7082 144.67 68.1095 145.435 68.7109 145.924L69.9721 144.372ZM71.2069 144.652C70.4863 144.631 70.1184 144.483 69.949 144.354L68.7341 145.942C69.3806 146.437 70.2368 146.625 71.1481 146.652L71.2069 144.652ZM71.9804 147.492C72.0634 147.05 72.1265 146.451 72.1753 145.719L70.1797 145.585C70.1326 146.293 70.0756 146.798 70.0146 147.124L71.9804 147.492ZM61.1695 148.308H70.9975V146.308H61.1695V148.308ZM98.388 146.264C98.388 145.981 98.376 145.713 98.3384 145.488L96.3657 145.816C96.3761 145.879 96.388 146.019 96.388 146.264H98.388ZM98.1207 147.624C98.2779 147.153 98.388 146.686 98.388 146.264H96.388C96.388 146.37 96.3542 146.599 96.2234 146.992L98.1207 147.624ZM90.8 148.308H97.1721V146.308H90.8V148.308ZM83.6369 138.546L89.9729 147.87L91.6272 146.746L85.2912 137.422L83.6369 138.546ZM83.3146 138.182C83.2691 138.175 83.2771 138.161 83.3422 138.212C83.4104 138.266 83.5138 138.37 83.6448 138.557L85.2833 137.411C84.897 136.859 84.3504 136.31 83.5975 136.202L83.3146 138.182ZM83.1066 138.919L84.1506 137.911L82.7615 136.473L81.7175 137.481L83.1066 138.919ZM83.412 145.22V138.2H81.412V145.22H83.412ZM84.896 144.652C84.0327 144.652 83.3409 144.522 82.7944 144.296L82.0297 146.144C82.8752 146.494 83.8394 146.652 84.896 146.652V144.652ZM85.896 146.156V145.652H83.896V146.156H85.896ZM85.7789 147.443C85.8515 146.911 85.896 146.469 85.896 146.156H83.896C83.896 146.323 83.8686 146.649 83.7972 147.173L85.7789 147.443ZM75.428 148.308H84.788V146.308H75.428V148.308ZM74.428 146.66V147.308H76.428V146.66H74.428ZM74.6594 145.336C74.5125 145.776 74.428 146.22 74.428 146.66H76.428C76.428 146.476 76.4636 146.248 76.5567 145.968L74.6594 145.336ZM76.7447 144.27C76.5813 144.389 76.1986 144.551 75.4582 144.663L75.7578 146.641C76.6015 146.513 77.3708 146.291 77.9274 145.882L76.7447 144.27ZM76.876 143.672C76.876 143.925 76.8415 144.08 76.8077 144.168C76.7777 144.246 76.7516 144.264 76.7447 144.27L77.9274 145.882C78.6545 145.349 78.876 144.495 78.876 143.672H76.876ZM76.876 126.572V143.672H78.876V126.572H76.876ZM75.32 127.104C76.2302 127.104 76.9339 127.246 77.467 127.485L78.2851 125.659C77.4262 125.274 76.4259 125.104 75.32 125.104V127.104ZM74.5456 124.15C74.3805 124.678 74.32 125.349 74.32 126.104H76.32C76.32 125.419 76.3796 124.986 76.4545 124.746L74.5456 124.15ZM84.8241 123.448H75.5V125.448H84.8241V123.448ZM85.86 125.168C85.86 124.841 85.8481 124.545 85.814 124.307L83.8341 124.589C83.848 124.687 83.86 124.871 83.86 125.168H85.86ZM85.6218 126.44C85.7715 126.021 85.86 125.594 85.86 125.168H83.86C83.86 125.318 83.8286 125.515 83.7383 125.768L85.6218 126.44ZM83.552 127.48C83.7363 127.342 84.1138 127.183 84.8041 127.096L84.556 125.112C83.7103 125.217 82.9358 125.442 82.352 125.88L83.552 127.48ZM83.412 128.084C83.412 127.831 83.4466 127.676 83.4804 127.588C83.5104 127.51 83.5364 127.492 83.5434 127.486L82.3607 125.874C81.6336 126.407 81.412 127.261 81.412 128.084H83.412ZM83.412 135.428V128.084H81.412V135.428H83.412ZM90.7466 125.823L81.7106 134.715L83.1135 136.141L92.1495 127.249L90.7466 125.823ZM88.9566 127.067C90.0215 127.113 90.6654 127.263 91.0008 127.43L91.8953 125.642C91.1747 125.281 90.1866 125.119 89.0435 125.069L88.9566 127.067ZM87.928 125.384C87.928 125.704 87.9568 126.018 88.0299 126.311L89.9702 125.825C89.9473 125.734 89.928 125.592 89.928 125.384H87.928ZM88.2249 124.054C88.0414 124.482 87.928 124.929 87.928 125.384H89.928C89.928 125.263 89.9587 125.086 90.0632 124.842L88.2249 124.054ZM97.2801 123.448H89.1441V125.448H97.2801V123.448ZM98.1499 126.278C98.2455 125.831 98.2801 125.201 98.2801 124.448H96.2801C96.2801 125.183 96.2426 125.633 96.1942 125.858L98.1499 126.278ZM93.968 128.418C94.9541 127.493 96.0116 127.068 97.1721 127.068V125.068C95.4525 125.068 93.918 125.723 92.6001 126.958L93.968 128.418ZM87.3194 134.851L93.9794 128.407L92.5887 126.969L85.9287 133.413L87.3194 134.851ZM89.6997 135.539C88.9576 134.373 88.0426 133.507 86.9062 133.173L86.3419 135.091C86.8375 135.237 87.4105 135.667 88.0124 136.613L89.6997 135.539ZM94.6877 142.895L89.6837 135.515L88.0284 136.637L93.0324 144.017L94.6877 142.895ZM95.9061 144.339C95.6417 144.172 95.2344 143.75 94.7027 142.918L93.0174 143.994C93.5897 144.89 94.1904 145.62 94.838 146.029L95.9061 144.339ZM97.4091 144.654C96.6459 144.61 96.152 144.472 95.854 144.308L94.8901 146.06C95.5521 146.424 96.3782 146.598 97.295 146.65L97.4091 144.654ZM116.673 144.436H111.273V146.436H116.673V144.436ZM118.059 143.956C117.953 144.154 117.663 144.436 116.673 144.436V146.436C117.986 146.436 119.208 146.046 119.822 144.9L118.059 143.956ZM118.738 140.904C118.572 142.495 118.321 143.467 118.059 143.956L119.822 144.9C120.28 144.045 120.557 142.737 120.727 141.112L118.738 140.904ZM121.897 140.133C121.412 140.042 120.669 140.008 119.733 140.008V142.008C120.668 142.008 121.245 142.046 121.528 142.099L121.897 140.133ZM122.857 144.752C122.857 143.691 122.807 142.455 122.71 141.047L120.715 141.185C120.81 142.561 120.857 143.749 120.857 144.752H122.857ZM122.82 147.344C122.844 146.655 122.857 145.79 122.857 144.752H120.857C120.857 145.778 120.845 146.617 120.821 147.272L122.82 147.344ZM104.289 148.308H121.821V146.308H104.289V148.308ZM103.289 146.66V147.308H105.289V146.66H103.289ZM103.52 145.336C103.373 145.776 103.289 146.22 103.289 146.66H105.289C105.289 146.476 105.324 146.248 105.417 145.968L103.52 145.336ZM105.605 144.27C105.442 144.389 105.059 144.551 104.319 144.663L104.618 146.641C105.462 146.513 106.231 146.291 106.788 145.882L105.605 144.27ZM105.737 143.672C105.737 143.925 105.702 144.08 105.668 144.168C105.638 144.246 105.612 144.264 105.605 144.27L106.788 145.882C107.515 145.349 107.737 144.495 107.737 143.672H105.737ZM105.737 126.572V143.672H107.737V126.572H105.737ZM104.181 127.104C105.151 127.104 105.838 127.249 106.303 127.473L107.17 125.671C106.339 125.271 105.322 125.104 104.181 125.104V127.104ZM103.406 124.15C103.241 124.678 103.181 125.349 103.181 126.104H105.181C105.181 125.419 105.24 124.986 105.315 124.746L103.406 124.15ZM121.461 123.448H104.361V125.448H121.461V123.448ZM122.461 126.788V124.448H120.461V126.788H122.461ZM122.277 130.511C122.399 129.122 122.461 127.88 122.461 126.788H120.461C120.461 127.808 120.403 128.99 120.284 130.337L122.277 130.511ZM119.409 131.496C120.193 131.496 120.854 131.472 121.38 131.419L121.181 129.429C120.747 129.472 120.16 129.496 119.409 129.496V131.496ZM117.837 127.747C117.799 127.709 117.824 127.717 117.882 127.852C117.935 127.976 117.996 128.16 118.06 128.417C118.189 128.93 118.309 129.654 118.415 130.606L120.402 130.386C120.292 129.394 120.16 128.57 120.001 127.931C119.921 127.612 119.829 127.319 119.72 127.065C119.616 126.822 119.47 126.551 119.252 126.333L117.837 127.747ZM116.457 127.284C117.148 127.284 117.565 127.474 117.837 127.747L119.252 126.333C118.516 125.598 117.541 125.284 116.457 125.284V127.284ZM111.273 127.284H116.457V125.284H111.273V127.284ZM112.273 134.852V126.284H110.273V134.852H112.273ZM116.38 133.459L111.196 133.855L111.349 135.849L116.533 135.453L116.38 133.459ZM117.861 133.456H116.457V135.456H117.861V133.456ZM118.861 137.084V134.456H116.861V137.084H118.861ZM116.457 138.084H117.861V136.084H116.457V138.084ZM111.217 137.794L116.401 138.082L116.512 136.086L111.328 135.798L111.217 137.794ZM112.273 145.436V136.796H110.273V145.436H112.273ZM141.597 146.695C143.431 145.278 144.361 143.351 144.361 141.008H142.361C142.361 142.745 141.708 144.082 140.374 145.113L141.597 146.695ZM135.513 148.74C137.791 148.74 139.832 148.059 141.597 146.695L140.374 145.113C138.971 146.197 137.364 146.74 135.513 146.74V148.74ZM128.154 147.433C130.861 148.294 133.318 148.74 135.513 148.74V146.74C133.581 146.74 131.334 146.346 128.761 145.527L128.154 147.433ZM127.421 144.284C127.421 145.294 127.433 146.048 127.459 146.533L129.456 146.427C129.434 146 129.421 145.29 129.421 144.284H127.421ZM127.752 139.815C127.535 141.722 127.421 143.218 127.421 144.284H129.421C129.421 143.334 129.524 141.926 129.739 140.041L127.752 139.815ZM130.785 139.129C130.136 138.994 129.455 138.928 128.745 138.928V140.928C129.332 140.928 129.875 140.982 130.378 141.087L130.785 139.129ZM131.581 140.324V140.108H129.581V140.324H131.581ZM135.477 144.58C134.018 144.58 133.103 144.192 132.537 143.584C131.959 142.964 131.581 141.939 131.581 140.324H129.581C129.581 142.213 130.02 143.816 131.074 144.948C132.14 146.092 133.672 146.58 135.477 146.58V144.58ZM137.592 143.969C137.116 144.346 136.442 144.58 135.477 144.58V146.58C136.769 146.58 137.919 146.262 138.835 145.535L137.592 143.969ZM138.257 142.412C138.257 143.128 138.02 143.614 137.576 143.982L138.851 145.522C139.799 144.738 140.257 143.664 140.257 142.412H138.257ZM137.434 140.527C138.005 141.098 138.257 141.713 138.257 142.412H140.257C140.257 141.143 139.766 140.03 138.849 139.113L137.434 140.527ZM135.047 138.85C136.009 139.31 136.796 139.867 137.423 140.515L138.86 139.125C138.047 138.285 137.058 137.594 135.908 137.046L135.047 138.85ZM131.867 137.17C132.93 137.75 133.982 138.306 135.022 138.838L135.933 137.058C134.909 136.534 133.873 135.986 132.824 135.414L131.867 137.17ZM128.834 134.429C129.658 135.572 130.665 136.487 131.851 137.161L132.839 135.423C131.914 134.897 131.121 134.18 130.457 133.259L128.834 134.429ZM127.565 130.172C127.565 131.766 127.974 133.196 128.825 134.416L130.466 133.272C129.877 132.428 129.565 131.41 129.565 130.172H127.565ZM130.083 124.877C128.397 126.163 127.565 127.968 127.565 130.172H129.565C129.565 128.536 130.15 127.341 131.296 126.467L130.083 124.877ZM135.909 123.016C133.658 123.016 131.692 123.622 130.075 124.883L131.304 126.461C132.519 125.514 134.033 125.016 135.909 125.016V123.016ZM142.618 124.106C140.324 123.383 138.087 123.016 135.909 123.016V125.016C137.86 125.016 139.894 125.345 142.017 126.014L142.618 124.106ZM142.838 130.757C143.156 128.701 143.317 126.801 143.317 125.06H141.317C141.317 126.679 141.167 128.475 140.861 130.451L142.838 130.757ZM140.225 131.485C140.756 131.565 141.298 131.604 141.849 131.604V129.604C141.393 129.604 140.951 129.571 140.522 129.507L140.225 131.485ZM136.053 127.104C137.08 127.104 137.78 127.4 138.275 127.903C138.791 128.428 139.196 129.292 139.383 130.634L141.364 130.358C141.143 128.772 140.624 127.44 139.7 126.501C138.755 125.54 137.499 125.104 136.053 125.104V127.104ZM134.043 127.682C134.497 127.326 135.137 127.104 136.053 127.104V125.104C134.809 125.104 133.698 125.41 132.808 126.11L134.043 127.682ZM133.417 129.092C133.417 128.429 133.638 128.001 134.043 127.682L132.808 126.11C131.869 126.847 131.417 127.883 131.417 129.092H133.417ZM134.229 130.821C133.651 130.262 133.417 129.695 133.417 129.092H131.417C131.417 130.313 131.928 131.378 132.838 132.259L134.229 130.821ZM136.7 132.474C135.727 132.009 134.903 131.453 134.217 130.81L132.85 132.27C133.7 133.067 134.7 133.735 135.839 134.278L136.7 132.474ZM139.952 134.118C138.878 133.532 137.791 132.983 136.692 132.47L135.847 134.282C136.907 134.777 137.957 135.308 138.995 135.874L139.952 134.118ZM143.021 136.787C142.189 135.633 141.157 134.733 139.929 134.106L139.018 135.886C139.95 136.363 140.742 137.047 141.398 137.957L143.021 136.787ZM144.361 141.008C144.361 139.4 143.921 137.968 143.005 136.766L141.414 137.978C142.034 138.792 142.361 139.784 142.361 141.008H144.361ZM158.177 134.968H156.161V136.968H158.177V134.968ZM161.06 133.975C160.459 134.593 159.55 134.968 158.177 134.968V136.968C159.923 136.968 161.414 136.479 162.494 135.369L161.06 133.975ZM162.073 131.144C162.073 132.428 161.706 133.328 161.069 133.965L162.484 135.379C163.575 134.288 164.073 132.836 164.073 131.144H162.073ZM161.096 128.313C161.714 128.949 162.073 129.852 162.073 131.144H164.073C164.073 129.46 163.592 128.011 162.53 126.919L161.096 128.313ZM158.177 127.32C159.579 127.32 160.498 127.698 161.096 128.313L162.53 126.919C161.447 125.806 159.942 125.32 158.177 125.32V127.32ZM156.161 127.32H158.177V125.32H156.161V127.32ZM157.161 135.968V126.32H155.161V135.968H157.161ZM156.161 138.84H159.041V136.84H156.161V138.84ZM157.161 144.968V137.84H155.161V144.968H157.161ZM159.509 144.655C158.256 144.563 157.278 144.35 156.545 144.045L155.776 145.891C156.771 146.306 157.977 146.549 159.364 146.649L159.509 144.655ZM160.211 147.606C160.376 147.078 160.437 146.407 160.437 145.652H158.437C158.437 146.337 158.377 146.77 158.302 147.01L160.211 147.606ZM149.177 148.308H159.257V146.308H149.177V148.308ZM148.177 146.624V147.308H150.177V146.624H148.177ZM148.354 145.394C148.242 145.815 148.177 146.228 148.177 146.624H150.177C150.177 146.444 150.207 146.209 150.287 145.91L148.354 145.394ZM150.457 144.27C150.294 144.389 149.911 144.551 149.171 144.663L149.47 146.641C150.314 146.513 151.083 146.291 151.64 145.882L150.457 144.27ZM150.589 143.672C150.589 143.925 150.554 144.08 150.52 144.168C150.49 144.246 150.464 144.264 150.457 144.27L151.64 145.882C152.367 145.349 152.589 144.495 152.589 143.672H150.589ZM150.589 126.572V143.672H152.589V126.572H150.589ZM149.105 127.104C149.873 127.104 150.572 127.238 151.212 127.498L151.965 125.646C151.069 125.282 150.112 125.104 149.105 125.104V127.104ZM148.105 125.6V126.104H150.105V125.6H148.105ZM148.222 124.313C148.149 124.845 148.105 125.287 148.105 125.6H150.105C150.105 125.433 150.132 125.107 150.203 124.583L148.222 124.313ZM159.005 123.448H149.213V125.448H159.005V123.448ZM166.088 125.559C164.195 124.125 161.807 123.448 159.005 123.448V125.448C161.483 125.448 163.415 126.043 164.881 127.153L166.088 125.559ZM169.005 131.18C169.005 128.894 167.994 127.001 166.088 125.559L164.881 127.153C166.336 128.255 167.005 129.578 167.005 131.18H169.005ZM166.081 136.771C167.992 135.351 169.005 133.468 169.005 131.18H167.005C167.005 132.78 166.337 134.089 164.888 135.165L166.081 136.771ZM159.041 138.84C161.838 138.84 164.215 138.177 166.086 136.767L164.883 135.169C163.443 136.255 161.523 136.84 159.041 136.84V138.84ZM185.219 144.436H179.819V146.436H185.219V144.436ZM186.605 143.956C186.499 144.154 186.209 144.436 185.219 144.436V146.436C186.532 146.436 187.754 146.046 188.368 144.9L186.605 143.956ZM187.284 140.904C187.118 142.495 186.867 143.467 186.605 143.956L188.368 144.9C188.827 144.045 189.104 142.737 189.273 141.112L187.284 140.904ZM190.443 140.133C189.958 140.042 189.215 140.008 188.279 140.008V142.008C189.215 142.008 189.791 142.046 190.075 142.099L190.443 140.133ZM191.403 144.752C191.403 143.691 191.353 142.455 191.256 141.047L189.261 141.185C189.356 142.561 189.403 143.749 189.403 144.752H191.403ZM191.366 147.344C191.391 146.655 191.403 145.79 191.403 144.752H189.403C189.403 145.778 189.391 146.617 189.367 147.272L191.366 147.344ZM172.835 148.308H190.367V146.308H172.835V148.308ZM171.835 146.66V147.308H173.835V146.66H171.835ZM172.066 145.336C171.919 145.776 171.835 146.22 171.835 146.66H173.835C173.835 146.476 173.87 146.248 173.963 145.968L172.066 145.336ZM174.151 144.27C173.988 144.389 173.605 144.551 172.865 144.663L173.165 146.641C174.008 146.513 174.778 146.291 175.334 145.882L174.151 144.27ZM174.283 143.672C174.283 143.925 174.248 144.08 174.214 144.168C174.184 144.246 174.158 144.264 174.151 144.27L175.334 145.882C176.061 145.349 176.283 144.495 176.283 143.672H174.283ZM174.283 126.572V143.672H176.283V126.572H174.283ZM172.727 127.104C173.697 127.104 174.385 127.249 174.849 127.473L175.717 125.671C174.885 125.271 173.868 125.104 172.727 125.104V127.104ZM171.952 124.15C171.787 124.678 171.727 125.349 171.727 126.104H173.727C173.727 125.419 173.786 124.986 173.861 124.746L171.952 124.15ZM190.007 123.448H172.907V125.448H190.007V123.448ZM191.007 126.788V124.448H189.007V126.788H191.007ZM190.823 130.511C190.945 129.122 191.007 127.88 191.007 126.788H189.007C189.007 127.808 188.949 128.99 188.831 130.337L190.823 130.511ZM187.955 131.496C188.739 131.496 189.4 131.472 189.926 131.419L189.727 129.429C189.294 129.472 188.706 129.496 187.955 129.496V131.496ZM186.384 127.747C186.345 127.709 186.37 127.717 186.428 127.852C186.481 127.976 186.542 128.16 186.607 128.417C186.735 128.93 186.855 129.654 186.961 130.606L188.949 130.386C188.838 129.394 188.706 128.57 188.547 127.931C188.467 127.612 188.375 127.319 188.266 127.065C188.162 126.822 188.016 126.551 187.798 126.333L186.384 127.747ZM185.003 127.284C185.695 127.284 186.111 127.474 186.384 127.747L187.798 126.333C187.063 125.598 186.087 125.284 185.003 125.284V127.284ZM179.819 127.284H185.003V125.284H179.819V127.284ZM180.819 134.852V126.284H178.819V134.852H180.819ZM184.927 133.459L179.743 133.855L179.895 135.849L185.079 135.453L184.927 133.459ZM186.407 133.456H185.003V135.456H186.407V133.456ZM187.407 137.084V134.456H185.407V137.084H187.407ZM185.003 138.084H186.407V136.084H185.003V138.084ZM179.763 137.794L184.947 138.082L185.058 136.086L179.874 135.798L179.763 137.794ZM180.819 145.436V136.796H178.819V145.436H180.819ZM207.732 136.48H201.9V138.48H207.732V136.48ZM203.788 128.017L206.776 137.773L208.688 137.187L205.7 127.431L203.788 128.017ZM205.436 129.36L205.724 127.92L203.763 127.528L203.475 128.968L205.436 129.36ZM202.856 137.774L205.412 129.458L203.5 128.87L200.944 137.186L202.856 137.774ZM206.353 145.465C206.244 146.04 206.192 146.655 206.192 147.308H208.192C208.192 146.761 208.236 146.272 208.318 145.839L206.353 145.465ZM209.552 143.894C209.081 144.129 208.283 144.396 207.102 144.68L207.569 146.624C208.789 146.332 209.766 146.023 210.447 145.682L209.552 143.894ZM207.424 139.789L209.044 145.081L210.956 144.495L209.336 139.203L207.424 139.789ZM201.288 140.496H208.38V138.496H201.288V140.496ZM200.516 145.44L202.244 139.788L200.331 139.204L198.603 144.856L200.516 145.44ZM202.368 144.652C201.177 144.652 200.44 144.486 200.034 144.268L199.086 146.028C199.928 146.482 201.063 146.652 202.368 146.652V144.652ZM203.204 147.504C203.316 146.945 203.368 146.325 203.368 145.652H201.368C201.368 146.227 201.323 146.711 201.243 147.112L203.204 147.504ZM194.7 148.308H202.224V146.308H194.7V148.308ZM193.863 145.456C193.751 146.015 193.7 146.635 193.7 147.308H195.7C195.7 146.733 195.744 146.249 195.824 145.848L193.863 145.456ZM196.485 143.11C196.224 143.909 195.668 144.434 194.618 144.678L195.07 146.626C196.708 146.246 197.879 145.283 198.386 143.73L196.485 143.11ZM202.75 124.099L196.486 143.107L198.385 143.733L204.649 124.725L202.75 124.099ZM208.138 122.98C206.217 123.029 204.655 123.175 203.483 123.436L203.917 125.388C204.905 125.169 206.319 125.027 208.189 124.98L208.138 122.98ZM215.344 143.188L209.116 123.676L207.211 124.284L213.439 143.796L215.344 143.188ZM215.994 144.372C215.828 144.237 215.581 143.898 215.34 143.176L213.443 143.808C213.73 144.67 214.132 145.435 214.733 145.924L215.994 144.372ZM217.229 144.652C216.508 144.631 216.141 144.483 215.971 144.354L214.756 145.942C215.403 146.437 216.259 146.625 217.17 146.652L217.229 144.652ZM218.003 147.492C218.086 147.05 218.149 146.451 218.197 145.718L216.202 145.585C216.155 146.293 216.098 146.798 216.037 147.124L218.003 147.492ZM207.192 148.308H217.02V146.308H207.192V148.308ZM230.81 133.96H228.434V135.96H230.81V133.96ZM233.235 133.173C232.76 133.648 232.007 133.96 230.81 133.96V135.96C232.35 135.96 233.684 135.552 234.649 134.587L233.235 133.173ZM234.058 130.676C234.058 131.892 233.737 132.671 233.235 133.173L234.649 134.587C235.635 133.601 236.058 132.244 236.058 130.676H234.058ZM233.235 128.143C233.734 128.642 234.058 129.431 234.058 130.676H236.058C236.058 129.089 235.638 127.718 234.649 126.729L233.235 128.143ZM230.81 127.32C231.998 127.32 232.747 127.639 233.224 128.131L234.661 126.741C233.698 125.745 232.358 125.32 230.81 125.32V127.32ZM228.434 127.32H230.81V125.32H228.434V127.32ZM229.434 134.96V126.32H227.434V134.96H229.434ZM243.408 147.551C243.555 146.964 243.618 146.276 243.618 145.508H241.618C241.618 146.18 241.562 146.692 241.468 147.065L243.408 147.551ZM236.498 148.308H242.438V146.308H236.498V148.308ZM231.206 138.672L235.598 147.744L237.398 146.872L233.006 137.8L231.206 138.672ZM230.714 137.956C230.821 138.036 230.998 138.235 231.203 138.666L233.009 137.806C232.734 137.229 232.384 136.708 231.914 136.356L230.714 137.956ZM230.054 137.832C230.499 137.832 230.67 137.923 230.714 137.956L231.914 136.356C231.383 135.957 230.714 135.832 230.054 135.832V137.832ZM228.434 137.832H230.054V135.832H228.434V137.832ZM229.434 144.968V136.832H227.434V144.968H229.434ZM231.525 144.654C230.545 144.589 229.643 144.383 228.814 144.043L228.055 145.893C229.097 146.321 230.212 146.571 231.392 146.65L231.525 144.654ZM232.494 146.3C232.494 146.012 232.481 145.744 232.448 145.511L230.468 145.793C230.483 145.896 230.494 146.06 230.494 146.3H232.494ZM232.324 147.537C232.428 147.092 232.494 146.672 232.494 146.3H230.494C230.494 146.456 230.464 146.708 230.377 147.079L232.324 147.537ZM221.45 148.308H231.35V146.308H221.45V148.308ZM220.45 146.66V147.308H222.45V146.66H220.45ZM220.682 145.336C220.535 145.776 220.45 146.22 220.45 146.66H222.45C222.45 146.476 222.486 146.248 222.579 145.968L220.682 145.336ZM222.767 144.27C222.603 144.389 222.221 144.551 221.48 144.663L221.78 146.641C222.624 146.513 223.393 146.291 223.95 145.882L222.767 144.27ZM222.898 143.672C222.898 143.925 222.864 144.08 222.83 144.168C222.8 144.246 222.774 144.264 222.767 144.27L223.95 145.882C224.677 145.349 224.898 144.495 224.898 143.672H222.898ZM222.898 126.572V143.672H224.898V126.572H222.898ZM221.342 127.104C222.166 127.104 222.888 127.241 223.522 127.498L224.275 125.646C223.373 125.279 222.391 125.104 221.342 125.104V127.104ZM220.568 124.15C220.403 124.678 220.342 125.349 220.342 126.104H222.342C222.342 125.419 222.402 124.986 222.477 124.746L220.568 124.15ZM231.674 123.448H221.522V125.448H231.674V123.448ZM238.331 125.31C236.655 124.026 234.395 123.448 231.674 123.448V125.448C234.138 125.448 235.909 125.974 237.114 126.898L238.331 125.31ZM240.918 130.64C240.918 128.423 240.052 126.609 238.324 125.306L237.12 126.902C238.32 127.807 238.918 129.017 238.918 130.64H240.918ZM239.509 134.831C240.459 133.651 240.918 132.235 240.918 130.64H238.918C238.918 131.829 238.585 132.789 237.951 133.577L239.509 134.831ZM235.603 137.32C237.238 136.819 238.565 136.004 239.509 134.831L237.951 133.577C237.311 134.372 236.359 134.997 235.017 135.408L235.603 137.32ZM238.097 138.154C237.458 136.979 236.717 136.048 235.829 135.509L234.791 137.219C235.247 137.496 235.778 138.077 236.34 139.11L238.097 138.154ZM240.521 142.893L238.109 138.177L236.328 139.087L238.74 143.803L240.521 142.893ZM241.498 144.282C241.269 144.107 240.931 143.691 240.52 142.891L238.741 143.805C239.193 144.685 239.696 145.421 240.283 145.87L241.498 144.282ZM242.618 144.508C242.022 144.508 241.66 144.388 241.445 144.244L240.336 145.908C240.984 146.34 241.775 146.508 242.618 146.508V144.508ZM260.128 144.436H254.728V146.436H260.128V144.436ZM261.515 143.956C261.409 144.154 261.119 144.436 260.128 144.436V146.436C261.442 146.436 262.664 146.046 263.278 144.9L261.515 143.956ZM262.194 140.904C262.027 142.495 261.777 143.467 261.515 143.956L263.278 144.9C263.736 144.045 264.013 142.737 264.183 141.112L262.194 140.904ZM265.353 140.133C264.868 140.042 264.125 140.008 263.188 140.008V142.008C264.124 142.008 264.701 142.046 264.984 142.099L265.353 140.133ZM266.312 144.752C266.312 143.691 266.263 142.455 266.166 141.047L264.171 141.185C264.266 142.561 264.312 143.749 264.312 144.752H266.312ZM266.276 147.344C266.3 146.655 266.312 145.79 266.312 144.752H264.312C264.312 145.778 264.3 146.617 264.277 147.272L266.276 147.344ZM247.744 148.308H265.276V146.308H247.744V148.308ZM246.744 146.66V147.308H248.744V146.66H246.744ZM246.976 145.336C246.829 145.776 246.744 146.22 246.744 146.66H248.744C248.744 146.476 248.78 146.248 248.873 145.968L246.976 145.336ZM249.061 144.27C248.898 144.389 248.515 144.551 247.775 144.663L248.074 146.641C248.918 146.513 249.687 146.291 250.244 145.882L249.061 144.27ZM249.192 143.672C249.192 143.925 249.158 144.08 249.124 144.168C249.094 144.246 249.068 144.264 249.061 144.27L250.244 145.882C250.971 145.349 251.192 144.495 251.192 143.672H249.192ZM249.192 126.572V143.672H251.192V126.572H249.192ZM247.636 127.104C248.607 127.104 249.294 127.249 249.759 127.473L250.626 125.671C249.795 125.271 248.778 125.104 247.636 125.104V127.104ZM246.862 124.15C246.697 124.678 246.636 125.349 246.636 126.104H248.636C248.636 125.419 248.696 124.986 248.771 124.746L246.862 124.15ZM264.916 123.448H247.816V125.448H264.916V123.448ZM265.916 126.788V124.448H263.916V126.788H265.916ZM265.732 130.511C265.854 129.122 265.916 127.88 265.916 126.788H263.916C263.916 127.808 263.858 128.99 263.74 130.337L265.732 130.511ZM262.864 131.496C263.649 131.496 264.309 131.472 264.836 131.419L264.637 129.429C264.203 129.472 263.616 129.496 262.864 129.496V131.496ZM261.293 127.747C261.255 127.709 261.28 127.717 261.338 127.852C261.391 127.976 261.452 128.16 261.516 128.417C261.645 128.93 261.765 129.654 261.87 130.606L263.858 130.386C263.748 129.394 263.616 128.57 263.456 127.931C263.377 127.612 263.285 127.319 263.176 127.065C263.072 126.822 262.926 126.551 262.707 126.333L261.293 127.747ZM259.912 127.284C260.604 127.284 261.02 127.474 261.293 127.747L262.707 126.333C261.972 125.598 260.997 125.284 259.912 125.284V127.284ZM254.728 127.284H259.912V125.284H254.728V127.284ZM255.728 134.852V126.284H253.728V134.852H255.728ZM259.836 133.459L254.652 133.855L254.804 135.849L259.988 135.453L259.836 133.459ZM261.316 133.456H259.912V135.456H261.316V133.456ZM262.316 137.084V134.456H260.316V137.084H262.316ZM259.912 138.084H261.316V136.084H259.912V138.084ZM254.673 137.794L259.857 138.082L259.968 136.086L254.784 135.798L254.673 137.794ZM255.728 145.436V136.796H253.728V145.436H255.728Z" fill="black" mask="url(#path-1-inside-1_54_13)"/>
</svg>
